<svg width="1032" height="1324" fill="none" xmlns="http://www.w3.org/2000/svg"><path d="M980.22 11.676l.006.003a82.086 82.086 0 0134.554 31.49c8.12 13.488 12.19 29.114 12.19 46.893s-4.09 33.434-12.25 46.981a82.724 82.724 0 01-34.548 31.491l-.006.003c-14.845 7.457-31.855 11.123-50.993 11.123H850.91v-27.32h76.691a77.65 77.65 0 0035.159-7.599l.005-.003a54.94 54.94 0 0023.322-21.847l.004-.008.004-.007a69.798 69.798 0 000-65.592l-.004-.007-.004-.008a54.52 54.52 0 00-23.324-21.795l-.002-.001a76.974 76.974 0 00-35.16-7.654H850.91V.5h78.316c19.154.012 36.148 3.742 50.994 11.176z" stroke="url(#paint0_linear)"/><path d="M315.136 753.053l-.006-.003a82.089 82.089 0 01-34.551-31.489c-8.126-13.524-12.196-29.168-12.196-46.947 0-17.779 4.088-33.429 12.249-46.964a82.748 82.748 0 0134.551-31.49h0l.006-.003c14.845-7.457 31.856-11.123 50.994-11.123h78.262v27.337h-76.673a77.554 77.554 0 00-35.159 7.6l-.004.002a54.88 54.88 0 00-23.34 21.848l-.004.007-.004.007a69.792 69.792 0 000 65.593l.004.007.004.007a54.466 54.466 0 0023.341 21.796l.002.001a76.886 76.886 0 0035.16 7.653h76.62v27.337H366.13c-19.154 0-36.148-3.73-50.994-11.176z" stroke="url(#paint1_linear)"/><path d="M309.467 14.386l.001-.001C322.968 6.2 338.6 2.102 356.379 2.102s33.428 4.087 46.963 12.248a82.536 82.536 0 0131.49 34.552l.003.006c7.458 14.827 11.123 31.838 11.123 50.975v78.263h-27.319v-76.673a77.607 77.607 0 00-7.6-35.159l-.002-.004a54.88 54.88 0 00-21.848-23.34l-.007-.004-.007-.004a69.798 69.798 0 00-65.593 0l-.007.004-.007.004a54.468 54.468 0 00-21.796 23.341l-.001.002a76.945 76.945 0 00-7.653 35.16v76.708h-27.319V99.919c.011-19.166 3.741-36.154 11.176-50.976h0l.003-.007a81.875 81.875 0 0131.489-34.55z" stroke="url(#paint2_linear)"/><path d="M5.605 178.146V.658H37.73v177.488H5.605z" stroke="url(#paint3_linear)"/><path d="M123.938 105.456H5.605V73.331h118.333v32.125z" stroke="url(#paint4_linear)"/><path d="M853.832 317.557h177.488v32.125H853.832v-32.125z" stroke="url(#paint5_linear)"/><path d="M926.522 435.89V317.557h32.125V435.89h-32.125z" stroke="url(#paint6_linear)"/><path d="M5.605 763.367V585.879H37.73v177.488H5.605z" stroke="url(#paint7_linear)"/><path d="M123.938 690.676H5.605v-32.124h118.333v32.124z" stroke="url(#paint8_linear)"/><path d="M709.141.658v177.488h-32.125V.658h32.125z" stroke="url(#paint9_linear)"/><path d="M590.808 73.331h118.333v32.125H590.808V73.331z" stroke="url(#paint10_linear)"/><path d="M446.1 435.872H268.612v-32.124H446.1v32.124z" stroke="url(#paint11_linear)"/><path d="M373.427 317.557V435.89h-32.125V317.557h32.125z" stroke="url(#paint12_linear)"/><path d="M578.241 615.448h177.488v32.124H578.241v-32.124z" stroke="url(#paint13_linear)"/><path d="M650.915 733.78V615.448h32.124V733.78h-32.124z" stroke="url(#paint14_linear)"/><path d="M129.677 371.58l.002.002c5.67 6.38 8.584 15.153 8.374 26.165v1.903h-30.357a16.083 16.083 0 00-5.457-12.231l-.33.375.33-.375a37.119 37.119 0 00-13.517-7.581c-5.452-1.836-12.84-3.887-22.16-6.152h0l-.008-.002a262.231 262.231 0 01-31.775-9.344 52.302 52.302 0 01-20.69-14.504l-.001-.002C8.38 343.343 5.5 334.519 5.5 323.306c0-.511.03-1.025.06-1.553l.002-.013c.02-.357.042-.72.053-1.085h30.69v1.253a15.81 15.81 0 005.452 12.389h0l.005.004a39.339 39.339 0 0013.58 7.468c5.381 1.813 12.77 3.864 22.16 6.153h0l.011.003a232.087 232.087 0 0131.348 9.22 52.782 52.782 0 0120.816 14.435z" stroke="url(#paint15_linear)"/><path d="M678.343 315.989h.001c6.433-5.69 15.209-8.587 26.173-8.534h1.896v30.498a16.053 16.053 0 00-12.231 5.457h-.001a37.26 37.26 0 00-7.58 13.517c-1.836 5.452-3.887 12.841-6.153 22.16h0l-.001.008a261.223 261.223 0 01-9.345 31.774 52.13 52.13 0 01-14.503 20.69l-.002.002c-6.491 5.708-15.315 8.588-26.529 8.588-.513 0-1.024-.026-1.55-.052h-.006a42.232 42.232 0 00-1.094-.047v-30.688h1.253a15.773 15.773 0 0012.389-5.453l.004-.004a39.359 39.359 0 007.468-13.58c1.813-5.37 3.864-12.753 6.153-22.142h0l.002-.012a232.661 232.661 0 019.22-31.365 53.049 53.049 0 0114.436-20.817z" stroke="url(#paint16_linear)"/><path d="M881.27 663.265l-.002-.001c-5.741-6.45-8.602-15.208-8.533-26.171h0v-1.897h30.428a16.036 16.036 0 005.457 12.213 37.13 37.13 0 0013.519 7.599c5.462 1.812 12.849 3.863 22.157 6.152h0l.009.002a258.458 258.458 0 0131.757 9.344 51.793 51.793 0 0120.689 14.485l.004.004c5.755 6.504 8.675 15.333 8.675 26.545 0 .502-.03 1.011-.06 1.54h0l-.06 1.111h-30.661c.012-.423.004-.847-.023-1.269a15.733 15.733 0 00-5.455-12.374l-.003-.003a39.103 39.103 0 00-13.562-7.468c-5.382-1.813-12.771-3.864-22.161-6.153h0l-.011-.003a234.019 234.019 0 01-31.348-9.22 52.792 52.792 0 01-20.816-14.436z" stroke="url(#paint17_linear)"/><path d="M975.22 894.676l.006.003a82.09 82.09 0 0134.554 31.489c8.12 13.489 12.19 29.115 12.19 46.894s-4.09 33.438-12.25 46.978a82.676 82.676 0 01-34.548 31.49l-.006.01c-14.845 7.45-31.855 11.12-50.993 11.12H845.91v-27.32h76.691a77.704 77.704 0 0035.159-7.6h.005a54.96 54.96 0 0023.322-21.85l.004-.01h.004a69.797 69.797 0 000-65.596l-.004-.007-.004-.008a54.521 54.521 0 00-23.324-21.795l-.002-.001a76.985 76.985 0 00-35.16-7.654H845.91V883.5h78.316c19.154.012 36.148 3.742 50.994 11.176z" stroke="url(#paint18_linear)"/><path d="M304.467 897.386l.001-.001c13.5-8.184 29.132-12.283 46.911-12.283s33.428 4.087 46.963 12.248a82.539 82.539 0 0131.49 34.552l.003.006c7.458 14.827 11.123 31.838 11.123 50.976v78.266h-27.319v-76.677a77.609 77.609 0 00-7.6-35.159l-.002-.004a54.88 54.88 0 00-21.848-23.34l-.007-.004-.007-.004a69.792 69.792 0 00-65.593 0l-.007.004-.007.004a54.472 54.472 0 00-21.796 23.341l-.001.002a76.943 76.943 0 00-7.653 35.16v76.707h-27.319v-78.261c.011-19.166 3.741-36.154 11.176-50.976h0l.003-.007a81.872 81.872 0 0131.489-34.55z" stroke="url(#paint19_linear)"/><path d="M.605 1061.15V883.658H32.73v177.492H.605z" stroke="url(#paint20_linear)"/><path d="M118.938 988.456H.605v-32.125h118.333v32.125z" stroke="url(#paint21_linear)"/><path d="M848.832 1200.56h177.488v32.12H848.832v-32.12z" stroke="url(#paint22_linear)"/><path d="M921.522 1318.89v-118.33h32.125v118.33h-32.125z" stroke="url(#paint23_linear)"/><path d="M704.141 883.658v177.492h-32.125V883.658h32.125z" stroke="url(#paint24_linear)"/><path d="M585.808 956.331h118.333v32.125H585.808v-32.125z" stroke="url(#paint25_linear)"/><path d="M441.1 1318.87H263.612v-32.12H441.1v32.12z" stroke="url(#paint26_linear)"/><path d="M368.427 1200.56v118.33h-32.125v-118.33h32.125z" stroke="url(#paint27_linear)"/><path d="M124.677 1254.58h.002c5.67 6.38 8.584 15.16 8.374 26.17v1.9h-30.357a16.12 16.12 0 00-1.326-6.56 16.042 16.042 0 00-4.13-5.67l-.331.37.33-.37a37.148 37.148 0 00-13.517-7.58c-5.452-1.84-12.84-3.89-22.16-6.15h0l-.008-.01a262.033 262.033 0 01-31.775-9.34 52.313 52.313 0 01-20.69-14.5l-.001-.01C3.38 1226.34.5 1217.52.5 1206.31c0-.52.03-1.03.06-1.56l.002-.01c.02-.36.042-.72.053-1.08h30.69v1.25a15.834 15.834 0 005.453 12.39h-.001.005a39.36 39.36 0 0013.58 7.47c5.381 1.81 12.77 3.86 22.16 6.15h.011a233.983 233.983 0 0131.348 9.22 52.886 52.886 0 0120.816 14.44z" stroke="url(#paint28_linear)"/><path d="M673.343 1198.99h.001c6.433-5.69 15.209-8.59 26.173-8.54h1.896v30.5c-2.253-.02-4.487.43-6.556 1.33a16.004 16.004 0 00-5.675 4.13h-.001a37.207 37.207 0 00-7.58 13.52c-1.836 5.45-3.887 12.84-6.153 22.16h0-.001a261.104 261.104 0 01-9.345 31.78 52.123 52.123 0 01-14.503 20.69h-.002c-6.491 5.71-15.315 8.59-26.529 8.59-.513 0-1.024-.03-1.55-.05h-.006c-.359-.02-.724-.04-1.094-.05v-30.69h1.253c2.339.07 4.663-.38 6.805-1.33a15.75 15.75 0 005.584-4.12l.004-.01a39.314 39.314 0 007.468-13.57c1.813-5.37 3.864-12.76 6.153-22.15h0l.002-.01a232.252 232.252 0 019.22-31.36 53.001 53.001 0 0114.436-20.82z" stroke="url(#paint29_linear)"/><defs><linearGradient id="paint0_linear" x1="938.941" y1="0" x2="938.941" y2="180.16" gradientUnits="userSpaceOnUse"><stop stop-color="#7BABE9"/><stop offset="1" stop-color="#7BABE9" stop-opacity="0"/></linearGradient><linearGradient id="paint1_linear" x1="356.414" y1="584.534" x2="356.414" y2="764.729" gradientUnits="userSpaceOnUse"><stop stop-color="#7BABE9"/><stop offset="1" stop-color="#7BABE9" stop-opacity="0"/></linearGradient><linearGradient id="paint2_linear" x1="356.379" y1="1.602" x2="356.379" y2="178.681" gradientUnits="userSpaceOnUse"><stop stop-color="#7BABE9"/><stop offset="1" stop-color="#7BABE9" stop-opacity="0"/></linearGradient><linearGradient id="paint3_linear" x1="21.668" y1=".158" x2="21.668" y2="178.646" gradientUnits="userSpaceOnUse"><stop stop-color="#7BABE9"/><stop offset="1" stop-color="#7BABE9" stop-opacity="0"/></linearGradient><linearGradient id="paint4_linear" x1="5.105" y1="89.394" x2="124.438" y2="89.394" gradientUnits="userSpaceOnUse"><stop stop-color="#7BABE9"/><stop offset="1" stop-color="#7BABE9" stop-opacity="0"/></linearGradient><linearGradient id="paint5_linear" x1="1031.82" y1="333.62" x2="853.332" y2="333.62" gradientUnits="userSpaceOnUse"><stop stop-color="#364B66" stop-opacity="0"/><stop offset="1" stop-color="#7BABE9"/></linearGradient><linearGradient id="paint6_linear" x1="942.585" y1="317.057" x2="942.585" y2="436.39" gradientUnits="userSpaceOnUse"><stop stop-color="#364B66" stop-opacity="0"/><stop offset="1" stop-color="#7BABE9"/></linearGradient><linearGradient id="paint7_linear" x1="21.668" y1="585.379" x2="21.668" y2="763.867" gradientUnits="userSpaceOnUse"><stop stop-color="#7BABE9"/><stop offset="1" stop-color="#7BABE9" stop-opacity="0"/></linearGradient><linearGradient id="paint8_linear" x1="5.105" y1="674.614" x2="124.438" y2="674.614" gradientUnits="userSpaceOnUse"><stop stop-color="#7BABE9"/><stop offset="1" stop-color="#7BABE9" stop-opacity="0"/></linearGradient><linearGradient id="paint9_linear" x1="693.078" y1="178.646" x2="693.078" y2=".158" gradientUnits="userSpaceOnUse"><stop stop-color="#7BABE9"/><stop offset="1" stop-color="#7BABE9" stop-opacity="0"/></linearGradient><linearGradient id="paint10_linear" x1="709.641" y1="89.394" x2="590.308" y2="89.394" gradientUnits="userSpaceOnUse"><stop stop-color="#7BABE9"/><stop offset="1" stop-color="#7BABE9" stop-opacity="0"/></linearGradient><linearGradient id="paint11_linear" x1="268.112" y1="419.81" x2="446.6" y2="419.81" gradientUnits="userSpaceOnUse"><stop stop-color="#7BABE9"/><stop offset="1" stop-color="#7BABE9" stop-opacity="0"/></linearGradient><linearGradient id="paint12_linear" x1="357.364" y1="436.39" x2="357.364" y2="317.057" gradientUnits="userSpaceOnUse"><stop stop-color="#7BABE9"/><stop offset="1" stop-color="#7BABE9" stop-opacity="0"/></linearGradient><linearGradient id="paint13_linear" x1="756.229" y1="631.51" x2="577.741" y2="631.51" gradientUnits="userSpaceOnUse"><stop stop-color="#7BABE9"/><stop offset="1" stop-color="#7BABE9" stop-opacity="0"/></linearGradient><linearGradient id="paint14_linear" x1="666.977" y1="614.948" x2="666.977" y2="734.28" gradientUnits="userSpaceOnUse"><stop stop-color="#7BABE9"/><stop offset="1" stop-color="#7BABE9" stop-opacity="0"/></linearGradient><linearGradient id="paint15_linear" x1="71.782" y1="320.155" x2="71.782" y2="400.15" gradientUnits="userSpaceOnUse"><stop stop-color="#7BABE9"/><stop offset="1" stop-color="#7BABE9" stop-opacity="0"/></linearGradient><linearGradient id="paint16_linear" x1="666.915" y1="306.954" x2="666.915" y2="440.649" gradientUnits="userSpaceOnUse"><stop stop-color="#7BABE9"/><stop offset="1" stop-color="#7BABE9" stop-opacity="0"/></linearGradient><linearGradient id="paint17_linear" x1="939.082" y1="634.696" x2="939.082" y2="714.691" gradientUnits="userSpaceOnUse"><stop stop-color="#7BABE9"/><stop offset="1" stop-color="#7BABE9" stop-opacity="0"/></linearGradient><linearGradient id="paint18_linear" x1="933.941" y1="883" x2="933.941" y2="1063.16" gradientUnits="userSpaceOnUse"><stop stop-color="#7BABE9"/><stop offset="1" stop-color="#7BABE9" stop-opacity="0"/></linearGradient><linearGradient id="paint19_linear" x1="351.379" y1="884.602" x2="351.379" y2="1061.68" gradientUnits="userSpaceOnUse"><stop stop-color="#7BABE9"/><stop offset="1" stop-color="#7BABE9" stop-opacity="0"/></linearGradient><linearGradient id="paint20_linear" x1="16.668" y1="883.158" x2="16.668" y2="1061.65" gradientUnits="userSpaceOnUse"><stop stop-color="#7BABE9"/><stop offset="1" stop-color="#7BABE9" stop-opacity="0"/></linearGradient><linearGradient id="paint21_linear" x1=".105" y1="972.393" x2="119.438" y2="972.393" gradientUnits="userSpaceOnUse"><stop stop-color="#7BABE9"/><stop offset="1" stop-color="#7BABE9" stop-opacity="0"/></linearGradient><linearGradient id="paint22_linear" x1="1026.82" y1="1216.62" x2="848.332" y2="1216.62" gradientUnits="userSpaceOnUse"><stop stop-color="#364B66" stop-opacity="0"/><stop offset="1" stop-color="#7BABE9"/></linearGradient><linearGradient id="paint23_linear" x1="937.585" y1="1200.06" x2="937.585" y2="1319.39" gradientUnits="userSpaceOnUse"><stop stop-color="#364B66" stop-opacity="0"/><stop offset="1" stop-color="#7BABE9"/></linearGradient><linearGradient id="paint24_linear" x1="688.078" y1="1061.65" x2="688.078" y2="883.158" gradientUnits="userSpaceOnUse"><stop stop-color="#7BABE9"/><stop offset="1" stop-color="#7BABE9" stop-opacity="0"/></linearGradient><linearGradient id="paint25_linear" x1="704.641" y1="972.393" x2="585.308" y2="972.393" gradientUnits="userSpaceOnUse"><stop stop-color="#7BABE9"/><stop offset="1" stop-color="#7BABE9" stop-opacity="0"/></linearGradient><linearGradient id="paint26_linear" x1="263.112" y1="1302.81" x2="441.6" y2="1302.81" gradientUnits="userSpaceOnUse"><stop stop-color="#7BABE9"/><stop offset="1" stop-color="#7BABE9" stop-opacity="0"/></linearGradient><linearGradient id="paint27_linear" x1="352.364" y1="1319.39" x2="352.364" y2="1200.06" gradientUnits="userSpaceOnUse"><stop stop-color="#7BABE9"/><stop offset="1" stop-color="#7BABE9" stop-opacity="0"/></linearGradient><linearGradient id="paint28_linear" x1="66.782" y1="1203.16" x2="66.782" y2="1283.15" gradientUnits="userSpaceOnUse"><stop stop-color="#7BABE9"/><stop offset="1" stop-color="#7BABE9" stop-opacity="0"/></linearGradient><linearGradient id="paint29_linear" x1="661.915" y1="1189.95" x2="661.915" y2="1323.65" gradientUnits="userSpaceOnUse"><stop stop-color="#7BABE9"/><stop offset="1" stop-color="#7BABE9" stop-opacity="0"/></linearGradient></defs></svg>