<svg width="691" height="692" fill="none" xmlns="http://www.w3.org/2000/svg"><path d="M347.064 584.215v.001l-59.596 106.513L.68 530.218l59.626-106.564s0 0 0 0c24.894-44.439 58.449-73.079 100.66-85.976 42.209-12.896 84.518-7.453 126.959 16.368h.001c42.154 23.588 68.795 56.666 79.97 99.241 11.175 42.574 4.249 86.208-20.832 130.928zm-31.627-112.756c-9.042-28.618-27.718-50.816-55.993-66.586-29.121-16.312-57.983-21.01-86.562-14.049-28.604 6.967-51.61 26.076-69.028 57.242l-31.63 56.5-.245.436.437.244 198.84 111.28.436.244.244-.436 31.61-56.48c16.956-30.28 20.939-59.755 11.891-88.395z" stroke="url(#paint0_linear)"/><path d="M519.227 224.214L366.286 413.117 90.203 189.606 243.154.703l41.973 33.981-113.936 140.731-.314.389.388.315 71.8 58.14.389.314.315-.388L355.364 96.313l41.973 33.981-111.596 137.871-.314.389.389.315 76.789 62.13.389.314.315-.388 113.945-140.702 41.973 33.991z" stroke="url(#paint1_linear)"/><path d="M595.784 672.556h0c-56.18 22.492-107.319 22.939-153.459 1.406l14.013-56.102c40.231 18.712 80.838 19.868 121.788 3.464 22.05-8.806 36.884-19.891 44.39-33.3 7.487-13.374 8.81-26.229 3.898-38.519v-.001c-5.076-12.665-15.79-20.048-31.999-22.199-16.132-2.142-34.421-1.591-54.863 1.641-20.387 3.225-41.187 5.657-62.401 7.296h-.004a116.667 116.667 0 01-59.744-10.764c-18.641-8.818-32.408-24.295-41.289-46.484-10.969-27.408-9.071-54.562 5.714-81.503 14.785-26.943 39.822-47.503 75.168-61.657 50.253-20.116 97.089-21.317 140.541-3.65l-15.554 55.024c-34.889-14.779-71.496-14.49-109.789.838h0c-17.123 6.859-29.282 16.022-36.409 27.521-7.138 11.515-8.182 23.609-3.13 36.229 3.343 8.357 9.755 13.932 19.173 16.724 9.36 2.775 20.335 3.632 32.912 2.589 12.539-1.008 26.277-2.603 41.212-4.784 14.909-2.178 30.115-3.583 45.618-4.215h.005c14.726-.735 29.49.131 44.029 2.583a86.086 86.086 0 0138.513 17.508l.004.003c11.832 9.269 21.088 22.215 27.755 38.862 11.769 29.393 10.827 57.787-2.814 85.222-13.631 27.414-41.353 49.519-83.278 66.268z" stroke="url(#paint2_linear)"/><defs><linearGradient id="paint0_linear" x1="186.785" y1="330.378" x2="186.785" y2="691.41" gradientUnits="userSpaceOnUse"><stop stop-color="#7BABE9" stop-opacity=".65"/><stop offset="1" stop-color="#7BABE9" stop-opacity="0"/></linearGradient><linearGradient id="paint1_linear" x1="304.715" y1="0" x2="304.715" y2="413.82" gradientUnits="userSpaceOnUse"><stop stop-color="#7BABE9" stop-opacity=".65"/><stop offset="1" stop-color="#7BABE9" stop-opacity="0"/></linearGradient><linearGradient id="paint2_linear" x1="529.576" y1="319.282" x2="529.576" y2="690.276" gradientUnits="userSpaceOnUse"><stop stop-color="#7BABE9" stop-opacity=".65"/><stop offset="1" stop-color="#7BABE9" stop-opacity="0"/></linearGradient></defs></svg>