<svg width="166" height="61" fill="none" xmlns="http://www.w3.org/2000/svg"><path d="M61 .033H1.075V60H61V.033z" fill="#007AFF"/><path d="M31.124 50.701l-5.187 9.278L1 46.013l5.19-9.283c2.163-3.863 5.08-6.356 8.751-7.478 3.672-1.123 7.352-.648 11.04 1.423 3.663 2.052 5.981 4.93 6.953 8.636.972 3.706.369 7.503-1.81 11.39zm-3.848-2.155c1.465-2.618 1.808-5.163 1.027-7.634-.78-2.472-2.391-4.389-4.834-5.752-2.516-1.41-5.007-1.815-7.472-1.214-2.465.6-4.45 2.249-5.956 4.944l-2.742 4.902 17.237 9.653 2.74-4.9z" fill="#fff" stroke="#fff" stroke-miterlimit="10"/><path d="M46.072 19.444L32.759 35.899l-24-19.444L22.072 0l3.706 3.002-9.904 12.242 6.224 5.044L31.8 8.294l3.706 3.002-9.701 11.994 6.657 5.39 9.905-12.24 3.706 3.004z" fill="#fff"/><path d="M52.663 58.384c-4.892 1.96-9.348 1.995-13.37.106l1.237-4.952c3.492 1.64 7.016 1.746 10.57.321 1.907-.762 3.183-1.718 3.827-2.87.644-1.15.755-2.252.335-3.303-.433-1.081-1.346-1.714-2.74-1.9-1.392-.184-2.974-.137-4.743.143-1.768.28-3.572.49-5.412.633a10.15 10.15 0 01-5.202-.938c-1.627-.77-2.828-2.122-3.6-4.055-.957-2.39-.79-4.76.497-7.108 1.288-2.348 3.467-4.137 6.538-5.368 4.379-1.754 8.463-1.854 12.252-.302l-1.373 4.858c-3.026-1.296-6.203-1.278-9.53.054-1.478.593-2.523 1.383-3.135 2.37-.611.987-.7 2.022-.268 3.104.285.711.83 1.187 1.634 1.425.805.24 1.751.314 2.838.223a55.72 55.72 0 003.57-.414 38.109 38.109 0 013.959-.366c1.28-.064 2.562.011 3.826.224a7.504 7.504 0 013.358 1.528c1.033.81 1.84 1.94 2.42 3.39 1.024 2.56.942 5.036-.246 7.428-1.188 2.391-3.602 4.314-7.242 5.77zm-21.484-23.31h.06a.217.217 0 000-.433h-.06a.217.217 0 000 .433zm1.396 1.885c.28 0 .28-.434 0-.434-.279 0-.279.434 0 .434z" fill="#fff"/><path d="M32.697 38.295c.279 0 .279-.433 0-.433-.28 0-.28.433 0 .433zm1.302-2.65l.122-.365a.219.219 0 00-.076-.23.218.218 0 00-.343.115l-.121.364a.217.217 0 00.418.115zm-.088-.935c.28 0 .28-.434 0-.434s-.279.434 0 .434z" fill="#fff"/><path d="M31.124 50.701l-5.187 9.278L1 46.013l5.19-9.283c2.163-3.863 5.08-6.356 8.751-7.478 3.672-1.123 7.352-.648 11.04 1.423 3.663 2.052 5.981 4.93 6.953 8.636.972 3.706.369 7.503-1.81 11.39zm-3.848-2.155c1.465-2.618 1.808-5.163 1.027-7.634-.78-2.472-2.391-4.389-4.834-5.752-2.516-1.41-5.007-1.815-7.472-1.214-2.465.6-4.45 2.249-5.956 4.944l-2.742 4.902 17.237 9.653 2.74-4.9z" fill="#fff"/><path d="M46.07 19.444L32.759 35.899l-24-19.444L22.07 0l3.706 3.002-9.904 12.242 6.224 5.044L31.8 8.294l3.706 3.002-9.702 11.994 6.657 5.39 9.905-12.24 3.706 3.004z" fill="#fff"/><path d="M52.663 58.384c-4.892 1.96-9.348 1.995-13.37.106l1.237-4.952c3.492 1.64 7.016 1.746 10.57.321 1.907-.762 3.183-1.718 3.827-2.87.644-1.15.755-2.252.335-3.303-.433-1.081-1.346-1.714-2.74-1.9-1.392-.184-2.974-.137-4.743.143-1.768.28-3.572.49-5.412.633a10.15 10.15 0 01-5.202-.938c-1.627-.77-2.828-2.122-3.6-4.055-.957-2.39-.79-4.76.497-7.108 1.288-2.348 3.467-4.137 6.538-5.368 4.379-1.754 8.463-1.854 12.252-.302l-1.373 4.858c-3.026-1.296-6.203-1.278-9.53.054-1.478.593-2.523 1.383-3.135 2.37-.611.987-.7 2.022-.268 3.104.285.711.83 1.187 1.634 1.425.805.24 1.751.314 2.838.223a55.72 55.72 0 003.57-.414 38.109 38.109 0 013.959-.366c1.28-.064 2.562.011 3.826.224a7.504 7.504 0 013.358 1.528c1.033.81 1.84 1.94 2.42 3.39 1.024 2.56.942 5.036-.246 7.428-1.188 2.391-3.602 4.314-7.242 5.77z" fill="#fff"/><path d="M29.068 33.058l2.475 3.251 1.26 3.845.471-.183 1.427-6.062-.258-.305-1.746 2.067-3.25-2.78-.38.167z" fill="#fff"/><path d="M74.421 40.602c.348.418.522.94.522 1.566 0 .835-.313 1.496-.94 1.983-.626.453-1.53.696-2.714.696H66.8v-9.813h4.21c1.08 0 1.915.21 2.506.662.592.417.905 1.044.905 1.879 0 .522-.14.974-.383 1.357a2.263 2.263 0 01-1.113.835c.66.14 1.183.417 1.496.835zm-6.229-1.253h2.75c.695 0 1.217-.139 1.565-.417.348-.279.557-.661.557-1.183s-.174-.94-.557-1.184c-.348-.278-.87-.417-1.566-.417h-2.749v3.201zm5.324 2.68c0-.557-.174-.975-.556-1.253-.383-.278-.94-.383-1.706-.383h-3.062v3.34h3.062c1.531 0 2.262-.556 2.262-1.704zm12.214-6.995v9.813h-1.392v-4.384h-5.637v4.384H77.31v-9.813h1.392v4.211h5.638v-4.21h1.391zm10.196 8.596v1.217h-7.133v-9.813h6.924v1.218h-5.533v3.028h4.907v1.183h-4.907v3.166h5.742zm11.553 0v3.375h-1.288v-2.158h-8.073v2.158h-1.287v-3.376h.487c.626-.034 1.044-.521 1.288-1.461.243-.94.417-2.262.452-3.967l.104-3.167h6.89v8.596h1.427zm-7.551-1.88c-.174.905-.453 1.532-.835 1.88h5.533v-7.378h-4.315l-.07 2.053c-.035 1.392-.139 2.54-.313 3.445zm16.285-5.81c.731.59 1.079 1.46 1.079 2.505 0 1.078-.348 1.913-1.079 2.505-.731.591-1.74.905-2.992.905h-2.436v2.958h-1.392v-9.814h3.828c1.287.035 2.261.314 2.992.94zm-1.009 4.14c.452-.383.696-.94.696-1.636s-.244-1.252-.696-1.635c-.452-.383-1.148-.557-2.018-.557h-2.401v4.42h2.401c.87-.035 1.566-.21 2.018-.592zm11.205 3.55v1.217h-7.134v-9.813h6.925v1.218h-5.533v3.028h4.907v1.183h-4.907v3.166h5.742zm10.648-8.596v9.813h-1.392v-4.384h-5.637v4.384h-1.392v-9.813h1.392v4.211h5.637v-4.21h1.392zm3.062 0h1.392v7.551L147.322 35h1.288v9.813h-1.392v-7.55l-5.811 7.55h-1.288v-9.778zm18.652 8.596v1.217h-7.134v-9.813h6.925v1.218h-5.533v3.028h4.907v1.183h-4.907v3.166h5.742zM68.505 59.323c-.8-.417-1.391-1.044-1.844-1.81-.452-.765-.661-1.635-.661-2.574 0-.94.209-1.81.661-2.575.453-.766 1.079-1.357 1.88-1.81a5.66 5.66 0 012.679-.66c.765 0 1.461.138 2.088.382a4.121 4.121 0 011.635 1.148l-.905.87c-.73-.765-1.67-1.148-2.749-1.148-.73 0-1.392.174-1.983.487-.592.313-1.044.765-1.392 1.357-.348.592-.487 1.218-.487 1.914s.174 1.357.487 1.914c.313.557.8 1.009 1.392 1.357a4.183 4.183 0 001.983.487c1.079 0 2.019-.383 2.75-1.183l.904.87a4.12 4.12 0 01-1.635 1.148c-.627.279-1.358.383-2.123.383-1.01.104-1.914-.104-2.68-.557zm14.963.557l-2.122-3.028c-.279.035-.453.035-.627.035h-2.435v2.993h-1.392v-9.813h3.827c1.288 0 2.262.313 2.993.905.73.591 1.079 1.461 1.079 2.505 0 .766-.174 1.392-.557 1.949-.383.522-.905.904-1.6 1.148l2.33 3.306h-1.496zm-.765-4.767c.452-.383.696-.94.696-1.636s-.244-1.253-.696-1.635c-.453-.383-1.148-.557-2.018-.557h-2.401v4.42h2.4c.87 0 1.567-.21 2.019-.592zm13.501 4.767v-7.17l-3.549 5.95h-.661l-3.55-5.915v7.099h-1.357v-9.813h1.149l4.106 6.89 4.036-6.89h1.149v9.813h-1.323v.035zm3.619-4.455h3.759v1.149h-3.758v-1.148zm7.899 3.898a4.409 4.409 0 01-1.844-1.81c-.452-.765-.661-1.635-.661-2.575 0-.939.209-1.809.661-2.575.453-.765 1.079-1.357 1.879-1.809a5.66 5.66 0 012.68-.661c.765 0 1.461.139 2.088.383a4.121 4.121 0 011.635 1.148l-.905.87c-.73-.766-1.67-1.148-2.749-1.148-.73 0-1.392.173-1.983.487-.592.313-1.044.765-1.392 1.357-.348.591-.487 1.218-.487 1.914s.174 1.357.487 1.914c.313.556.8 1.009 1.392 1.357a4.182 4.182 0 001.983.487c1.079 0 2.019-.383 2.749-1.183l.905.87a4.121 4.121 0 01-1.635 1.148c-.627.278-1.358.383-2.123.383a4.359 4.359 0 01-2.68-.557zm8.352-9.256h1.392v7.586l5.811-7.586h1.288v9.813h-1.392v-7.551l-5.812 7.55h-1.287v-9.812zm13.258 9.256a4.403 4.403 0 01-1.844-1.81c-.453-.765-.662-1.635-.662-2.575 0-.939.209-1.809.662-2.575.452-.765 1.078-1.357 1.879-1.809.8-.418 1.67-.661 2.679-.661.766 0 1.462.139 2.088.383a4.121 4.121 0 011.635 1.148l-.904.87c-.731-.766-1.671-1.148-2.749-1.148-.731 0-1.392.173-1.984.487-.591.313-1.044.765-1.392 1.357-.348.591-.487 1.218-.487 1.914s.174 1.357.487 1.914c.313.556.801 1.009 1.392 1.357a4.186 4.186 0 001.984.487c1.078 0 2.018-.383 2.749-1.183l.904.87a4.121 4.121 0 01-1.635 1.148c-.626.278-1.357.383-2.123.383a4.354 4.354 0 01-2.679-.557zm14.998-8.038h-3.376v8.595h-1.391v-8.595h-3.341v-1.218h8.108v1.218zm8.838 7.377v1.218h-7.133v-9.813h6.925v1.218h-5.533v3.027h4.906v1.183h-4.906v3.167h5.741zm11.31 1.218v-7.17l-3.55 5.95h-.661l-3.549-5.915v7.099h-1.357v-9.813h1.148l4.106 6.89 4.037-6.89h1.148v9.813h-1.322v.035z" fill="#364B66"/></svg>