<svg width="88" height="74" fill="none" xmlns="http://www.w3.org/2000/svg"><path d="M27.059 36.523c3.45 1.432 6.117 3.74 8 6.922 2.039 3.024 3.059 6.684 3.059 10.98 0 5.73-1.804 10.425-5.412 14.085C29.098 72.17 24.627 74 19.294 74c-5.647 0-10.274-1.83-13.882-5.49C1.804 64.85 0 60.155 0 54.426c0-2.865.314-5.65.941-8.355.784-2.705 2.196-6.764 4.235-12.174L17.647 0h18.824l-9.412 36.523zm49.882 0c3.451 1.432 6.118 3.74 8 6.922C86.981 46.47 88 50.13 88 54.425c0 5.73-1.804 10.425-5.412 14.085C78.98 72.17 74.51 74 69.177 74c-5.648 0-10.275-1.83-13.883-5.49-3.608-3.66-5.412-8.355-5.412-14.084 0-2.865.314-5.65.942-8.355.784-2.705 2.196-6.764 4.235-12.174L67.529 0h18.824L76.94 36.523z" fill="#F3F6FA"/></svg>