<svg width="1032" height="1324" viewBox="0 0 1032 1324" fill="none" xmlns="http://www.w3.org/2000/svg">
<path d="M980.22 11.6763L980.226 11.6793C994.551 18.6049 1006.56 29.545 1014.78 43.1683C1022.9 56.6568 1026.97 72.2827 1026.97 90.0623C1026.97 107.841 1022.88 123.496 1014.72 137.043C1006.47 150.643 994.477 161.577 980.172 168.534L980.166 168.537C965.321 175.994 948.311 179.66 929.173 179.66H850.91V152.34H927.601C939.754 152.594 951.796 149.991 962.76 144.741L962.765 144.738C972.532 139.928 980.649 132.323 986.087 122.891L986.091 122.883L986.095 122.876C991.469 112.78 994.28 101.518 994.28 90.0799C994.28 78.6423 991.469 67.38 986.095 57.2838L986.091 57.2766L986.087 57.2694C980.661 47.8397 972.538 40.2489 962.763 35.4736L962.761 35.4727C951.81 30.1795 939.761 27.5568 927.601 27.8194H850.91V0.5H929.226C948.38 0.511733 965.374 4.24157 980.22 11.6763Z" stroke="url(#paint0_linear)"/>
<path d="M315.136 753.053L315.13 753.05C300.804 746.124 288.801 735.184 280.579 721.561C272.453 708.037 268.383 692.393 268.383 674.614C268.383 656.835 272.471 641.185 280.632 627.65C288.883 614.05 300.879 603.118 315.183 596.16L315.183 596.16L315.189 596.157C330.034 588.7 347.045 585.034 366.183 585.034H444.445V612.371H367.772C355.619 612.114 343.575 614.717 332.613 619.971L332.609 619.973C322.833 624.778 314.709 632.383 309.269 641.821L309.265 641.828L309.261 641.835C303.886 651.932 301.075 663.194 301.075 674.631C301.075 686.069 303.886 697.331 309.261 707.428L309.265 707.435L309.269 707.442C314.696 716.876 322.827 724.468 332.61 729.238L332.612 729.239C343.561 734.535 355.611 737.158 367.772 736.892H444.392V764.229H366.13C346.976 764.229 329.982 760.499 315.136 753.053Z" stroke="url(#paint1_linear)"/>
<path d="M309.467 14.3856L309.468 14.3849C322.968 6.20086 338.6 2.10168 356.379 2.10168C374.158 2.10168 389.807 6.18915 403.342 14.35C416.949 22.5919 427.885 34.5905 434.832 48.9017L434.835 48.908C442.293 63.735 445.958 80.7459 445.958 99.8835V178.146H418.639V101.473C418.894 89.3201 416.291 77.277 411.039 66.3143L411.037 66.3098C406.232 56.5342 398.627 48.4096 389.189 42.97L389.182 42.9658L389.175 42.9618C379.078 37.5873 367.816 34.7763 356.379 34.7763C344.941 34.7763 333.679 37.5873 323.582 42.9618L323.575 42.9657L323.568 42.9698C314.134 48.3975 306.542 56.5276 301.772 66.3112L301.771 66.3127C296.477 77.2631 293.854 89.3128 294.118 101.473V178.181H266.799V99.9187C266.81 80.753 270.54 63.765 277.975 48.9427L277.975 48.9427L277.978 48.9358C284.894 34.6036 295.836 22.5973 309.467 14.3856Z" stroke="url(#paint2_linear)"/>
<path d="M5.60547 178.146V0.658203H37.7298V178.146H5.60547Z" stroke="url(#paint3_linear)"/>
<path d="M123.938 105.456L5.60547 105.456L5.60547 73.3313H123.938V105.456Z" stroke="url(#paint4_linear)"/>
<path d="M853.832 317.557H1031.32V349.682H853.832V317.557Z" stroke="url(#paint5_linear)"/>
<path d="M926.522 435.89V317.557H958.647V435.89H926.522Z" stroke="url(#paint6_linear)"/>
<path d="M5.60547 763.367V585.879H37.7298V763.367H5.60547Z" stroke="url(#paint7_linear)"/>
<path d="M123.938 690.676H5.60547L5.60547 658.552H123.938V690.676Z" stroke="url(#paint8_linear)"/>
<path d="M709.141 0.658401V178.146H677.016V0.658401H709.141Z" stroke="url(#paint9_linear)"/>
<path d="M590.808 73.3314L709.141 73.3314V105.456H590.808V73.3314Z" stroke="url(#paint10_linear)"/>
<path d="M446.1 435.872H268.612V403.748H446.1V435.872Z" stroke="url(#paint11_linear)"/>
<path d="M373.427 317.557V435.89H341.302V317.557H373.427Z" stroke="url(#paint12_linear)"/>
<path d="M578.241 615.448H755.729V647.572H578.241V615.448Z" stroke="url(#paint13_linear)"/>
<path d="M650.915 733.78V615.448H683.039V733.78H650.915Z" stroke="url(#paint14_linear)"/>
<path d="M129.677 371.58L129.679 371.582C135.349 377.962 138.263 386.735 138.053 397.747V397.756V397.761V397.766V397.771V397.775V397.78V397.785V397.79V397.794V397.799V397.804V397.809V397.813V397.818V397.823V397.828V397.832V397.837V397.842V397.847V397.851V397.856V397.861V397.866V397.87V397.875V397.88V397.885V397.889V397.894V397.899V397.904V397.908V397.913V397.918V397.923V397.927V397.932V397.937V397.942V397.946V397.951V397.956V397.961V397.965V397.97V397.975V397.98V397.984V397.989V397.994V397.999V398.004V398.008V398.013V398.018V398.023V398.027V398.032V398.037V398.042V398.046V398.051V398.056V398.061V398.065V398.07V398.075V398.08V398.084V398.089V398.094V398.099V398.104V398.108V398.113V398.118V398.123V398.127V398.132V398.137V398.142V398.146V398.151V398.156V398.161V398.165V398.17V398.175V398.18V398.184V398.189V398.194V398.199V398.204V398.208V398.213V398.218V398.223V398.227V398.232V398.237V398.242V398.246V398.251V398.256V398.261V398.265V398.27V398.275V398.28V398.285V398.289V398.294V398.299V398.304V398.308V398.313V398.318V398.323V398.327V398.332V398.337V398.342V398.346V398.351V398.356V398.361V398.366V398.37V398.375V398.38V398.385V398.389V398.394V398.399V398.404V398.408V398.413V398.418V398.423V398.427V398.432V398.437V398.442V398.446V398.451V398.456V398.461V398.466V398.47V398.475V398.48V398.485V398.489V398.494V398.499V398.504V398.508V398.513V398.518V398.523V398.527V398.532V398.537V398.542V398.546V398.551V398.556V398.561V398.565V398.57V398.575V398.58V398.584V398.589V398.594V398.599V398.603V398.608V398.613V398.618V398.623V398.627V398.632V398.637V398.642V398.646V398.651V398.656V398.661V398.665V398.67V398.675V398.68V398.684V398.689V398.694V398.698V398.703V398.708V398.713V398.717V398.722V398.727V398.732V398.736V398.741V398.746V398.751V398.755V398.76V398.765V398.77V398.774V398.779V398.784V398.789V398.793V398.798V398.803V398.808V398.812V398.817V398.822V398.827V398.831V398.836V398.841V398.845V398.85V398.855V398.86V398.864V398.869V398.874V398.879V398.883V398.888V398.893V398.897V398.902V398.907V398.912V398.916V398.921V398.926V398.931V398.935V398.94V398.945V398.949V398.954V398.959V398.964V398.968V398.973V398.978V398.982V398.987V398.992V398.997V399.001V399.006V399.011V399.015V399.02V399.025V399.03V399.034V399.039V399.044V399.048V399.053V399.058V399.063V399.067V399.072V399.077V399.081V399.086V399.091V399.095V399.1V399.105V399.11V399.114V399.119V399.124V399.128V399.133V399.138V399.142V399.147V399.152V399.157V399.161V399.166V399.171V399.175V399.18V399.185V399.189V399.194V399.199V399.203V399.208V399.213V399.217V399.222V399.227V399.232V399.236V399.241V399.246V399.25V399.255V399.26V399.264V399.269V399.274V399.278V399.283V399.288V399.292V399.297V399.302V399.306V399.311V399.316V399.32V399.325V399.33V399.334V399.339V399.344V399.348V399.353V399.358V399.362V399.367V399.372V399.376V399.381V399.385V399.39V399.395V399.399V399.404V399.409V399.413V399.418V399.423V399.427V399.432V399.437V399.441V399.446V399.45V399.455V399.46V399.464V399.469V399.474V399.478V399.483V399.488V399.492V399.497V399.501V399.506V399.511V399.515V399.52V399.525V399.529V399.534V399.538V399.543V399.548V399.552V399.557V399.561V399.566V399.571V399.575V399.58V399.584V399.589V399.594V399.598V399.603V399.607V399.612V399.617V399.621V399.626V399.63V399.635V399.64V399.644V399.649V399.65H107.696C107.718 397.397 107.267 395.164 106.37 393.095C105.428 390.922 104.018 388.984 102.239 387.419L101.909 387.794L102.239 387.419C98.3171 383.969 93.7108 381.386 88.7216 379.838C83.2697 378.002 75.8812 375.951 66.5618 373.686L66.5618 373.686L66.5542 373.684C55.7762 371.242 45.1635 368.121 34.7795 364.34C26.8013 361.269 19.6974 356.289 14.0897 349.836L14.0878 349.834C8.38051 343.343 5.5 334.519 5.5 323.306C5.5 322.795 5.5298 322.281 5.56073 321.753L5.56152 321.74C5.58238 321.383 5.60366 321.02 5.61494 320.655H36.3043V320.656V320.66V320.663V320.667V320.67V320.674V320.677V320.681V320.684V320.688V320.691V320.694V320.698V320.701V320.705V320.708V320.712V320.715V320.719V320.722V320.725V320.729V320.732V320.736V320.739V320.743V320.746V320.75V320.753V320.757V320.76V320.763V320.767V320.77V320.774V320.777V320.781V320.784V320.788V320.791V320.794V320.798V320.801V320.805V320.808V320.812V320.815V320.819V320.822V320.825V320.829V320.832V320.836V320.839V320.843V320.846V320.85V320.853V320.856V320.86V320.863V320.867V320.87V320.874V320.877V320.881V320.884V320.887V320.891V320.894V320.898V320.901V320.905V320.908V320.911V320.915V320.918V320.922V320.925V320.929V320.932V320.936V320.939V320.942V320.946V320.949V320.953V320.956V320.96V320.963V320.966V320.97V320.973V320.977V320.98V320.984V320.987V320.99V320.994V320.997V321.001V321.004V321.008V321.011V321.014V321.018V321.021V321.025V321.028V321.032V321.035V321.038V321.042V321.045V321.049V321.052V321.056V321.059V321.062V321.066V321.069V321.073V321.076V321.08V321.083V321.086V321.09V321.093V321.097V321.1V321.104V321.107V321.11V321.114V321.117V321.121V321.124V321.128V321.131V321.134V321.138V321.141V321.145V321.148V321.152V321.155V321.158V321.162V321.165V321.169V321.172V321.175V321.179V321.182V321.186V321.189V321.193V321.196V321.199V321.203V321.206V321.21V321.213V321.217V321.22V321.223V321.227V321.23V321.234V321.237V321.24V321.244V321.247V321.251V321.254V321.258V321.261V321.264V321.268V321.271V321.275V321.278V321.281V321.285V321.288V321.292V321.295V321.299V321.302V321.305V321.309V321.312V321.316V321.319V321.322V321.326V321.329V321.333V321.336V321.34V321.343V321.346V321.35V321.353V321.357V321.36V321.363V321.367V321.37V321.374V321.377V321.381V321.384V321.387V321.391V321.394V321.398V321.401V321.404V321.408V321.411V321.415V321.418V321.421V321.425V321.428V321.432V321.435V321.439V321.442V321.445V321.449V321.452V321.456V321.459V321.462V321.466V321.469V321.473V321.476V321.479V321.483V321.486V321.49V321.493V321.496V321.5V321.503V321.507V321.51V321.514V321.517V321.52V321.524V321.527V321.531V321.534V321.537V321.541V321.544V321.548V321.551V321.554V321.558V321.561V321.565V321.568V321.571V321.575V321.578V321.582V321.585V321.589V321.592V321.595V321.599V321.602V321.606V321.609V321.612V321.616V321.619V321.623V321.626V321.629V321.633V321.636V321.64V321.643V321.646V321.65V321.653V321.657V321.66V321.663V321.667V321.67V321.674V321.677V321.68V321.684V321.687V321.691V321.694V321.697V321.701V321.704V321.708V321.711V321.715V321.718V321.721V321.725V321.728V321.732V321.735V321.738V321.742V321.745V321.749V321.752V321.755V321.759V321.762V321.766V321.769V321.772V321.776V321.779V321.783V321.786V321.789V321.793V321.796V321.8V321.803V321.806V321.81V321.813V321.817V321.82V321.823V321.827V321.83V321.834V321.837V321.84V321.844V321.847V321.851V321.854V321.857V321.861V321.864V321.868V321.871V321.874V321.878V321.881V321.885V321.888V321.892V321.895V321.898V321.902V321.905V321.908C36.2396 324.247 36.6947 326.571 37.6367 328.712C38.5797 330.856 39.987 332.763 41.7571 334.297L41.757 334.297L41.7619 334.301C45.7486 337.666 50.3646 340.205 55.3414 341.769C60.723 343.582 68.1119 345.633 77.5017 347.922L77.5017 347.922L77.5131 347.925C88.166 350.258 98.6413 353.339 108.861 357.145C116.869 360.196 124.013 365.15 129.677 371.58Z" stroke="url(#paint15_linear)"/>
<path d="M678.343 315.989L678.344 315.989C684.777 310.299 693.553 307.402 704.517 307.455H704.519H704.524H704.529H704.533H704.538H704.543H704.548H704.552H704.557H704.562H704.566H704.571H704.576H704.581H704.585H704.59H704.595H704.6H704.604H704.609H704.614H704.619H704.623H704.628H704.633H704.638H704.642H704.647H704.652H704.657H704.662H704.666H704.671H704.676H704.681H704.685H704.69H704.695H704.7H704.704H704.709H704.714H704.719H704.723H704.728H704.733H704.738H704.742H704.747H704.752H704.757H704.761H704.766H704.771H704.776H704.78H704.785H704.79H704.795H704.799H704.804H704.809H704.814H704.819H704.823H704.828H704.833H704.838H704.842H704.847H704.852H704.857H704.861H704.866H704.871H704.876H704.88H704.885H704.89H704.895H704.899H704.904H704.909H704.914H704.919H704.923H704.928H704.933H704.938H704.942H704.947H704.952H704.957H704.961H704.966H704.971H704.976H704.98H704.985H704.99H704.995H705H705.004H705.009H705.014H705.019H705.023H705.028H705.033H705.038H705.042H705.047H705.052H705.057H705.061H705.066H705.071H705.076H705.081H705.085H705.09H705.095H705.1H705.104H705.109H705.114H705.119H705.123H705.128H705.133H705.138H705.142H705.147H705.152H705.157H705.162H705.166H705.171H705.176H705.181H705.185H705.19H705.195H705.2H705.204H705.209H705.214H705.219H705.223H705.228H705.233H705.238H705.242H705.247H705.252H705.257H705.261H705.266H705.271H705.276H705.281H705.285H705.29H705.295H705.3H705.304H705.309H705.314H705.319H705.323H705.328H705.333H705.338H705.342H705.347H705.352H705.357H705.361H705.366H705.371H705.376H705.38H705.385H705.39H705.395H705.399H705.404H705.409H705.414H705.418H705.423H705.428H705.433H705.437H705.442H705.447H705.452H705.456H705.461H705.466H705.471H705.475H705.48H705.485H705.49H705.494H705.499H705.504H705.509H705.513H705.518H705.523H705.528H705.532H705.537H705.542H705.546H705.551H705.556H705.561H705.565H705.57H705.575H705.58H705.584H705.589H705.594H705.599H705.603H705.608H705.613H705.618H705.622H705.627H705.632H705.636H705.641H705.646H705.651H705.655H705.66H705.665H705.67H705.674H705.679H705.684H705.688H705.693H705.698H705.703H705.707H705.712H705.717H705.721H705.726H705.731H705.736H705.74H705.745H705.75H705.755H705.759H705.764H705.769H705.773H705.778H705.783H705.788H705.792H705.797H705.802H705.806H705.811H705.816H705.82H705.825H705.83H705.835H705.839H705.844H705.849H705.853H705.858H705.863H705.868H705.872H705.877H705.882H705.886H705.891H705.896H705.9H705.905H705.91H705.914H705.919H705.924H705.929H705.933H705.938H705.943H705.947H705.952H705.957H705.961H705.966H705.971H705.975H705.98H705.985H705.989H705.994H705.999H706.003H706.008H706.013H706.018H706.022H706.027H706.032H706.036H706.041H706.046H706.05H706.055H706.06H706.064H706.069H706.074H706.078H706.083H706.088H706.092H706.097H706.102H706.106H706.111H706.115H706.12H706.125H706.129H706.134H706.139H706.143H706.148H706.153H706.157H706.162H706.167H706.171H706.176H706.181H706.185H706.19H706.195H706.199H706.204H706.208H706.213H706.218H706.222H706.227H706.232H706.236H706.241H706.245H706.25H706.255H706.259H706.264H706.269H706.273H706.278H706.282H706.287H706.292H706.296H706.301H706.306H706.31H706.315H706.319H706.324H706.329H706.333H706.338H706.342H706.347H706.352H706.356H706.361H706.365H706.37H706.375H706.379H706.384H706.388H706.393H706.398H706.402H706.407H706.411H706.413V337.953C704.16 337.929 701.926 338.38 699.857 339.277C697.683 340.219 695.745 341.631 694.182 343.41L694.181 343.41C690.735 347.335 688.152 351.94 686.601 356.927C684.765 362.379 682.714 369.768 680.448 379.087L680.448 379.087L680.447 379.095C678.007 389.874 674.886 400.486 671.102 410.869C668.037 418.851 663.057 425.956 656.599 431.559L656.597 431.561C650.106 437.269 641.282 440.149 630.068 440.149C629.555 440.149 629.044 440.123 628.518 440.097L628.512 440.097C628.153 440.078 627.788 440.06 627.418 440.05V409.362H627.419H627.423H627.426H627.429H627.433H627.436H627.44H627.443H627.447H627.45H627.454H627.457H627.461H627.464H627.467H627.471H627.474H627.478H627.481H627.485H627.488H627.492H627.495H627.499H627.502H627.505H627.509H627.512H627.516H627.519H627.523H627.526H627.53H627.533H627.536H627.54H627.543H627.547H627.55H627.554H627.557H627.561H627.564H627.567H627.571H627.574H627.578H627.581H627.585H627.588H627.592H627.595H627.598H627.602H627.605H627.609H627.612H627.616H627.619H627.623H627.626H627.629H627.633H627.636H627.64H627.643H627.647H627.65H627.654H627.657H627.66H627.664H627.667H627.671H627.674H627.678H627.681H627.684H627.688H627.691H627.695H627.698H627.702H627.705H627.709H627.712H627.715H627.719H627.722H627.726H627.729H627.733H627.736H627.739H627.743H627.746H627.75H627.753H627.757H627.76H627.763H627.767H627.77H627.774H627.777H627.781H627.784H627.787H627.791H627.794H627.798H627.801H627.805H627.808H627.811H627.815H627.818H627.822H627.825H627.829H627.832H627.835H627.839H627.842H627.846H627.849H627.853H627.856H627.859H627.863H627.866H627.87H627.873H627.877H627.88H627.883H627.887H627.89H627.894H627.897H627.901H627.904H627.907H627.911H627.914H627.918H627.921H627.924H627.928H627.931H627.935H627.938H627.942H627.945H627.948H627.952H627.955H627.959H627.962H627.966H627.969H627.972H627.976H627.979H627.983H627.986H627.989H627.993H627.996H628H628.003H628.007H628.01H628.013H628.017H628.02H628.024H628.027H628.031H628.034H628.037H628.041H628.044H628.048H628.051H628.054H628.058H628.061H628.065H628.068H628.072H628.075H628.078H628.082H628.085H628.089H628.092H628.095H628.099H628.102H628.106H628.109H628.112H628.116H628.119H628.123H628.126H628.13H628.133H628.136H628.14H628.143H628.147H628.15H628.153H628.157H628.16H628.164H628.167H628.171H628.174H628.177H628.181H628.184H628.188H628.191H628.194H628.198H628.201H628.205H628.208H628.211H628.215H628.218H628.222H628.225H628.229H628.232H628.235H628.239H628.242H628.246H628.249H628.252H628.256H628.259H628.263H628.266H628.269H628.273H628.276H628.28H628.283H628.286H628.29H628.293H628.297H628.3H628.303H628.307H628.31H628.314H628.317H628.321H628.324H628.327H628.331H628.334H628.338H628.341H628.344H628.348H628.351H628.355H628.358H628.361H628.365H628.368H628.372H628.375H628.378H628.382H628.385H628.389H628.392H628.395H628.399H628.402H628.406H628.409H628.413H628.416H628.419H628.423H628.426H628.43H628.433H628.436H628.44H628.443H628.447H628.45H628.453H628.457H628.46H628.464H628.467H628.47H628.474H628.477H628.481H628.484H628.487H628.491H628.494H628.498H628.501H628.504H628.508H628.511H628.515H628.518H628.521H628.525H628.528H628.532H628.535H628.538H628.542H628.545H628.549H628.552H628.556H628.559H628.562H628.566H628.569H628.573H628.576H628.579H628.583H628.586H628.59H628.593H628.596H628.6H628.603H628.607H628.61H628.613H628.617H628.62H628.624H628.627H628.63H628.634H628.637H628.641H628.644H628.647H628.651H628.654H628.658H628.661H628.664H628.668H628.671C631.01 409.43 633.334 408.976 635.476 408.033C637.621 407.09 639.528 405.681 641.06 403.909L641.064 403.905C644.429 399.918 646.967 395.302 648.532 390.325C650.345 384.955 652.396 377.572 654.685 368.183L654.685 368.183L654.687 368.171C657.021 357.513 660.102 347.032 663.907 336.806C666.967 328.803 671.921 321.66 678.343 315.989Z" stroke="url(#paint16_linear)"/>
<path d="M881.27 663.265L881.268 663.264C875.527 656.814 872.666 648.056 872.735 637.093L872.735 637.093V637.089V637.085V637.08V637.075V637.07V637.066V637.061V637.056V637.051V637.047V637.042V637.037V637.033V637.028V637.023V637.018V637.014V637.009V637.004V636.999V636.995V636.99V636.985V636.98V636.975V636.971V636.966V636.961V636.956V636.952V636.947V636.942V636.937V636.933V636.928V636.923V636.918V636.914V636.909V636.904V636.899V636.895V636.89V636.885V636.88V636.876V636.871V636.866V636.861V636.857V636.852V636.847V636.842V636.838V636.833V636.828V636.823V636.819V636.814V636.809V636.804V636.799V636.795V636.79V636.785V636.78V636.776V636.771V636.766V636.761V636.757V636.752V636.747V636.742V636.738V636.733V636.728V636.723V636.719V636.714V636.709V636.704V636.699V636.695V636.69V636.685V636.68V636.676V636.671V636.666V636.661V636.657V636.652V636.647V636.642V636.638V636.633V636.628V636.623V636.618V636.614V636.609V636.604V636.599V636.595V636.59V636.585V636.58V636.576V636.571V636.566V636.561V636.557V636.552V636.547V636.542V636.537V636.533V636.528V636.523V636.518V636.514V636.509V636.504V636.499V636.495V636.49V636.485V636.48V636.476V636.471V636.466V636.461V636.457V636.452V636.447V636.442V636.437V636.433V636.428V636.423V636.418V636.414V636.409V636.404V636.399V636.395V636.39V636.385V636.38V636.376V636.371V636.366V636.361V636.357V636.352V636.347V636.342V636.337V636.333V636.328V636.323V636.318V636.314V636.309V636.304V636.299V636.295V636.29V636.285V636.28V636.276V636.271V636.266V636.261V636.257V636.252V636.247V636.242V636.238V636.233V636.228V636.223V636.219V636.214V636.209V636.204V636.2V636.195V636.19V636.185V636.181V636.176V636.171V636.166V636.162V636.157V636.152V636.147V636.143V636.138V636.133V636.128V636.124V636.119V636.114V636.109V636.105V636.1V636.095V636.09V636.086V636.081V636.076V636.071V636.067V636.062V636.057V636.053V636.048V636.043V636.038V636.034V636.029V636.024V636.019V636.015V636.01V636.005V636V635.996V635.991V635.986V635.981V635.977V635.972V635.967V635.963V635.958V635.953V635.948V635.944V635.939V635.934V635.929V635.925V635.92V635.915V635.911V635.906V635.901V635.896V635.892V635.887V635.882V635.878V635.873V635.868V635.863V635.859V635.854V635.849V635.845V635.84V635.835V635.83V635.826V635.821V635.816V635.812V635.807V635.802V635.797V635.793V635.788V635.783V635.779V635.774V635.769V635.764V635.76V635.755V635.75V635.746V635.741V635.736V635.732V635.727V635.722V635.717V635.713V635.708V635.703V635.699V635.694V635.689V635.685V635.68V635.675V635.671V635.666V635.661V635.657V635.652V635.647V635.642V635.638V635.633V635.628V635.624V635.619V635.614V635.61V635.605V635.6V635.596V635.591V635.586V635.582V635.577V635.572V635.568V635.563V635.558V635.554V635.549V635.544V635.54V635.535V635.53V635.526V635.521V635.516V635.512V635.507V635.502V635.498V635.493V635.488V635.484V635.479V635.474V635.47V635.465V635.46V635.456V635.451V635.446V635.442V635.437V635.433V635.428V635.423V635.419V635.414V635.409V635.405V635.4V635.395V635.391V635.386V635.382V635.377V635.372V635.368V635.363V635.358V635.354V635.349V635.344V635.34V635.335V635.331V635.326V635.321V635.317V635.312V635.308V635.303V635.298V635.294V635.289V635.284V635.28V635.275V635.271V635.266V635.261V635.257V635.252V635.248V635.243V635.238V635.234V635.229V635.225V635.22V635.215V635.211V635.206V635.202V635.197V635.196H903.163C903.14 637.446 903.591 639.677 904.488 641.744C905.43 643.914 906.841 645.849 908.62 647.409C912.541 650.865 917.148 653.455 922.139 655.008C927.601 656.82 934.988 658.871 944.296 661.16L944.296 661.16L944.305 661.162C955.08 663.595 965.687 666.716 976.062 670.506C984.048 673.553 991.156 678.53 996.751 684.991L996.755 684.995C1002.51 691.499 1005.43 700.328 1005.43 711.54C1005.43 712.042 1005.4 712.551 1005.37 713.08L1005.37 713.08C1005.35 713.443 1005.33 713.815 1005.31 714.191H974.649C974.661 713.768 974.653 713.344 974.626 712.922C974.694 710.588 974.242 708.267 973.302 706.13C972.358 703.985 970.947 702.078 969.171 700.548L969.168 700.545C965.19 697.177 960.579 694.637 955.606 693.077C950.224 691.264 942.835 689.213 933.445 686.924L933.445 686.924L933.434 686.921C922.783 684.582 912.308 681.501 902.086 677.701C894.079 674.65 886.934 669.695 881.27 663.265Z" stroke="url(#paint17_linear)"/>
<path d="M975.22 894.676L975.226 894.679C989.551 901.605 1001.56 912.545 1009.78 926.168C1017.9 939.657 1021.97 955.283 1021.97 973.062C1021.97 990.841 1017.88 1006.5 1009.72 1020.04C1001.47 1033.64 989.477 1044.58 975.172 1051.53L975.166 1051.54C960.321 1058.99 943.311 1062.66 924.173 1062.66H845.91V1035.34H922.601C934.754 1035.59 946.796 1032.99 957.76 1027.74L957.765 1027.74C967.532 1022.93 975.649 1015.32 981.087 1005.89L981.091 1005.88L981.095 1005.88C986.469 995.78 989.28 984.518 989.28 973.08C989.28 961.642 986.469 950.38 981.095 940.284L981.091 940.277L981.087 940.269C975.661 930.84 967.538 923.249 957.763 918.474L957.761 918.473C946.81 913.18 934.761 910.557 922.601 910.819H845.91V883.5H924.226C943.38 883.512 960.374 887.242 975.22 894.676Z" stroke="url(#paint18_linear)"/>
<path d="M304.467 897.386L304.468 897.385C317.968 889.201 333.6 885.102 351.379 885.102C369.158 885.102 384.807 889.189 398.342 897.35C411.949 905.592 422.885 917.591 429.832 931.902L429.835 931.908C437.293 946.735 440.958 963.746 440.958 982.884V1061.15H413.639V984.473C413.894 972.32 411.291 960.277 406.039 949.314L406.037 949.31C401.232 939.534 393.627 931.41 384.189 925.97L384.182 925.966L384.175 925.962C374.078 920.587 362.816 917.776 351.379 917.776C339.941 917.776 328.679 920.587 318.582 925.962L318.575 925.966L318.568 925.97C309.134 931.398 301.542 939.528 296.772 949.311L296.771 949.313C291.477 960.263 288.854 972.313 289.118 984.473V1061.18H261.799V982.919C261.81 963.753 265.54 946.765 272.975 931.943L272.975 931.943L272.978 931.936C279.894 917.604 290.836 905.597 304.467 897.386Z" stroke="url(#paint19_linear)"/>
<path d="M0.605469 1061.15V883.658H32.7298V1061.15H0.605469Z" stroke="url(#paint20_linear)"/>
<path d="M118.938 988.456H0.605469L0.605469 956.331H118.938V988.456Z" stroke="url(#paint21_linear)"/>
<path d="M848.832 1200.56H1026.32V1232.68H848.832V1200.56Z" stroke="url(#paint22_linear)"/>
<path d="M921.522 1318.89V1200.56H953.647V1318.89H921.522Z" stroke="url(#paint23_linear)"/>
<path d="M704.141 883.658V1061.15H672.016V883.658H704.141Z" stroke="url(#paint24_linear)"/>
<path d="M585.808 956.331H704.141V988.456H585.808V956.331Z" stroke="url(#paint25_linear)"/>
<path d="M441.1 1318.87H263.612V1286.75H441.1V1318.87Z" stroke="url(#paint26_linear)"/>
<path d="M368.427 1200.56V1318.89H336.302V1200.56H368.427Z" stroke="url(#paint27_linear)"/>
<path d="M124.677 1254.58L124.679 1254.58C130.349 1260.96 133.263 1269.74 133.053 1280.75V1280.76V1280.76V1280.77V1280.77V1280.78V1280.78V1280.78V1280.79V1280.79V1280.8V1280.8V1280.81V1280.81V1280.82V1280.82V1280.83V1280.83V1280.84V1280.84V1280.85V1280.85V1280.86V1280.86V1280.87V1280.87V1280.88V1280.88V1280.88V1280.89V1280.89V1280.9V1280.9V1280.91V1280.91V1280.92V1280.92V1280.93V1280.93V1280.94V1280.94V1280.95V1280.95V1280.96V1280.96V1280.97V1280.97V1280.97V1280.98V1280.98V1280.99V1280.99V1281V1281V1281.01V1281.01V1281.02V1281.02V1281.03V1281.03V1281.04V1281.04V1281.05V1281.05V1281.06V1281.06V1281.07V1281.07V1281.07V1281.08V1281.08V1281.09V1281.09V1281.1V1281.1V1281.11V1281.11V1281.12V1281.12V1281.13V1281.13V1281.14V1281.14V1281.15V1281.15V1281.16V1281.16V1281.17V1281.17V1281.17V1281.18V1281.18V1281.19V1281.19V1281.2V1281.2V1281.21V1281.21V1281.22V1281.22V1281.23V1281.23V1281.24V1281.24V1281.25V1281.25V1281.26V1281.26V1281.27V1281.27V1281.28V1281.28V1281.28V1281.29V1281.29V1281.3V1281.3V1281.31V1281.31V1281.32V1281.32V1281.33V1281.33V1281.34V1281.34V1281.35V1281.35V1281.36V1281.36V1281.37V1281.37V1281.38V1281.38V1281.38V1281.39V1281.39V1281.4V1281.4V1281.41V1281.41V1281.42V1281.42V1281.43V1281.43V1281.44V1281.44V1281.45V1281.45V1281.46V1281.46V1281.47V1281.47V1281.48V1281.48V1281.48V1281.49V1281.49V1281.5V1281.5V1281.51V1281.51V1281.52V1281.52V1281.53V1281.53V1281.54V1281.54V1281.55V1281.55V1281.56V1281.56V1281.57V1281.57V1281.57V1281.58V1281.58V1281.59V1281.59V1281.6V1281.6V1281.61V1281.61V1281.62V1281.62V1281.63V1281.63V1281.64V1281.64V1281.65V1281.65V1281.66V1281.66V1281.67V1281.67V1281.67V1281.68V1281.68V1281.69V1281.69V1281.7V1281.7V1281.71V1281.71V1281.72V1281.72V1281.73V1281.73V1281.74V1281.74V1281.75V1281.75V1281.76V1281.76V1281.76V1281.77V1281.77V1281.78V1281.78V1281.79V1281.79V1281.8V1281.8V1281.81V1281.81V1281.82V1281.82V1281.83V1281.83V1281.84V1281.84V1281.85V1281.85V1281.85V1281.86V1281.86V1281.87V1281.87V1281.88V1281.88V1281.89V1281.89V1281.9V1281.9V1281.91V1281.91V1281.92V1281.92V1281.93V1281.93V1281.94V1281.94V1281.94V1281.95V1281.95V1281.96V1281.96V1281.97V1281.97V1281.98V1281.98V1281.99V1281.99V1282V1282V1282.01V1282.01V1282.02V1282.02V1282.02V1282.03V1282.03V1282.04V1282.04V1282.05V1282.05V1282.06V1282.06V1282.07V1282.07V1282.08V1282.08V1282.09V1282.09V1282.1V1282.1V1282.1V1282.11V1282.11V1282.12V1282.12V1282.13V1282.13V1282.14V1282.14V1282.15V1282.15V1282.16V1282.16V1282.17V1282.17V1282.18V1282.18V1282.18V1282.19V1282.19V1282.2V1282.2V1282.21V1282.21V1282.22V1282.22V1282.23V1282.23V1282.24V1282.24V1282.25V1282.25V1282.25V1282.26V1282.26V1282.27V1282.27V1282.28V1282.28V1282.29V1282.29V1282.3V1282.3V1282.31V1282.31V1282.32V1282.32V1282.32V1282.33V1282.33V1282.34V1282.34V1282.35V1282.35V1282.36V1282.36V1282.37V1282.37V1282.38V1282.38V1282.39V1282.39V1282.39V1282.4V1282.4V1282.41V1282.41V1282.42V1282.42V1282.43V1282.43V1282.44V1282.44V1282.45V1282.45V1282.46V1282.46V1282.46V1282.47V1282.47V1282.48V1282.48V1282.49V1282.49V1282.5V1282.5V1282.51V1282.51V1282.52V1282.52V1282.52V1282.53V1282.53V1282.54V1282.54V1282.55V1282.55V1282.56V1282.56V1282.57V1282.57V1282.58V1282.58V1282.58V1282.59V1282.59V1282.6V1282.6V1282.61V1282.61V1282.62V1282.62V1282.63V1282.63V1282.64V1282.64V1282.64V1282.65V1282.65H102.696C102.718 1280.4 102.267 1278.16 101.37 1276.09C100.428 1273.92 99.0175 1271.98 97.2393 1270.42L96.909 1270.79L97.2392 1270.42C93.3171 1266.97 88.7108 1264.39 83.7216 1262.84C78.2697 1261 70.8812 1258.95 61.5618 1256.69L61.5618 1256.69L61.5542 1256.68C50.7762 1254.24 40.1635 1251.12 29.7795 1247.34C21.8013 1244.27 14.6974 1239.29 9.08968 1232.84L9.08778 1232.83C3.38051 1226.34 0.5 1217.52 0.5 1206.31C0.5 1205.79 0.5298 1205.28 0.560727 1204.75L0.561522 1204.74C0.582385 1204.38 0.603658 1204.02 0.614943 1203.66H31.3043V1203.66V1203.66V1203.66V1203.67V1203.67V1203.67V1203.68V1203.68V1203.68V1203.69V1203.69V1203.69V1203.7V1203.7V1203.7V1203.71V1203.71V1203.72V1203.72V1203.72V1203.73V1203.73V1203.73V1203.74V1203.74V1203.74V1203.75V1203.75V1203.75V1203.76V1203.76V1203.76V1203.77V1203.77V1203.77V1203.78V1203.78V1203.78V1203.79V1203.79V1203.79V1203.8V1203.8V1203.8V1203.81V1203.81V1203.82V1203.82V1203.82V1203.83V1203.83V1203.83V1203.84V1203.84V1203.84V1203.85V1203.85V1203.85V1203.86V1203.86V1203.86V1203.87V1203.87V1203.87V1203.88V1203.88V1203.88V1203.89V1203.89V1203.89V1203.9V1203.9V1203.9V1203.91V1203.91V1203.91V1203.92V1203.92V1203.93V1203.93V1203.93V1203.94V1203.94V1203.94V1203.95V1203.95V1203.95V1203.96V1203.96V1203.96V1203.97V1203.97V1203.97V1203.98V1203.98V1203.98V1203.99V1203.99V1203.99V1204V1204V1204V1204.01V1204.01V1204.01V1204.02V1204.02V1204.02V1204.03V1204.03V1204.04V1204.04V1204.04V1204.05V1204.05V1204.05V1204.06V1204.06V1204.06V1204.07V1204.07V1204.07V1204.08V1204.08V1204.08V1204.09V1204.09V1204.09V1204.1V1204.1V1204.1V1204.11V1204.11V1204.11V1204.12V1204.12V1204.12V1204.13V1204.13V1204.13V1204.14V1204.14V1204.14V1204.15V1204.15V1204.15V1204.16V1204.16V1204.17V1204.17V1204.17V1204.18V1204.18V1204.18V1204.19V1204.19V1204.19V1204.2V1204.2V1204.2V1204.21V1204.21V1204.21V1204.22V1204.22V1204.22V1204.23V1204.23V1204.23V1204.24V1204.24V1204.24V1204.25V1204.25V1204.25V1204.26V1204.26V1204.26V1204.27V1204.27V1204.27V1204.28V1204.28V1204.28V1204.29V1204.29V1204.3V1204.3V1204.3V1204.31V1204.31V1204.31V1204.32V1204.32V1204.32V1204.33V1204.33V1204.33V1204.34V1204.34V1204.34V1204.35V1204.35V1204.35V1204.36V1204.36V1204.36V1204.37V1204.37V1204.37V1204.38V1204.38V1204.38V1204.39V1204.39V1204.39V1204.4V1204.4V1204.4V1204.41V1204.41V1204.41V1204.42V1204.42V1204.42V1204.43V1204.43V1204.44V1204.44V1204.44V1204.45V1204.45V1204.45V1204.46V1204.46V1204.46V1204.47V1204.47V1204.47V1204.48V1204.48V1204.48V1204.49V1204.49V1204.49V1204.5V1204.5V1204.5V1204.51V1204.51V1204.51V1204.52V1204.52V1204.52V1204.53V1204.53V1204.53V1204.54V1204.54V1204.54V1204.55V1204.55V1204.55V1204.56V1204.56V1204.56V1204.57V1204.57V1204.57V1204.58V1204.58V1204.59V1204.59V1204.59V1204.6V1204.6V1204.6V1204.61V1204.61V1204.61V1204.62V1204.62V1204.62V1204.63V1204.63V1204.63V1204.64V1204.64V1204.64V1204.65V1204.65V1204.65V1204.66V1204.66V1204.66V1204.67V1204.67V1204.67V1204.68V1204.68V1204.68V1204.69V1204.69V1204.69V1204.7V1204.7V1204.7V1204.71V1204.71V1204.71V1204.72V1204.72V1204.72V1204.73V1204.73V1204.73V1204.74V1204.74V1204.75V1204.75V1204.75V1204.76V1204.76V1204.76V1204.77V1204.77V1204.77V1204.78V1204.78V1204.78V1204.79V1204.79V1204.79V1204.8V1204.8V1204.8V1204.81V1204.81V1204.81V1204.82V1204.82V1204.82V1204.83V1204.83V1204.83V1204.84V1204.84V1204.84V1204.85V1204.85V1204.85V1204.86V1204.86V1204.86V1204.87V1204.87V1204.87V1204.88V1204.88V1204.88V1204.89V1204.89V1204.89V1204.9V1204.9V1204.91V1204.91C31.2396 1207.25 31.6947 1209.57 32.6367 1211.71C33.5797 1213.86 34.987 1215.76 36.7571 1217.3L36.757 1217.3L36.7619 1217.3C40.7486 1220.67 45.3646 1223.2 50.3414 1224.77C55.723 1226.58 63.1119 1228.63 72.5017 1230.92L72.5017 1230.92L72.5131 1230.92C83.166 1233.26 93.6413 1236.34 103.861 1240.14C111.869 1243.2 119.013 1248.15 124.677 1254.58Z" stroke="url(#paint28_linear)"/>
<path d="M673.343 1198.99L673.344 1198.99C679.777 1193.3 688.553 1190.4 699.517 1190.45H699.519H699.524H699.529H699.533H699.538H699.543H699.548H699.552H699.557H699.562H699.566H699.571H699.576H699.581H699.585H699.59H699.595H699.6H699.604H699.609H699.614H699.619H699.623H699.628H699.633H699.638H699.642H699.647H699.652H699.657H699.662H699.666H699.671H699.676H699.681H699.685H699.69H699.695H699.7H699.704H699.709H699.714H699.719H699.723H699.728H699.733H699.738H699.742H699.747H699.752H699.757H699.761H699.766H699.771H699.776H699.78H699.785H699.79H699.795H699.799H699.804H699.809H699.814H699.819H699.823H699.828H699.833H699.838H699.842H699.847H699.852H699.857H699.861H699.866H699.871H699.876H699.88H699.885H699.89H699.895H699.899H699.904H699.909H699.914H699.919H699.923H699.928H699.933H699.938H699.942H699.947H699.952H699.957H699.961H699.966H699.971H699.976H699.98H699.985H699.99H699.995H700H700.004H700.009H700.014H700.019H700.023H700.028H700.033H700.038H700.042H700.047H700.052H700.057H700.061H700.066H700.071H700.076H700.081H700.085H700.09H700.095H700.1H700.104H700.109H700.114H700.119H700.123H700.128H700.133H700.138H700.142H700.147H700.152H700.157H700.162H700.166H700.171H700.176H700.181H700.185H700.19H700.195H700.2H700.204H700.209H700.214H700.219H700.223H700.228H700.233H700.238H700.242H700.247H700.252H700.257H700.261H700.266H700.271H700.276H700.281H700.285H700.29H700.295H700.3H700.304H700.309H700.314H700.319H700.323H700.328H700.333H700.338H700.342H700.347H700.352H700.357H700.361H700.366H700.371H700.376H700.38H700.385H700.39H700.395H700.399H700.404H700.409H700.414H700.418H700.423H700.428H700.433H700.437H700.442H700.447H700.452H700.456H700.461H700.466H700.471H700.475H700.48H700.485H700.49H700.494H700.499H700.504H700.509H700.513H700.518H700.523H700.528H700.532H700.537H700.542H700.546H700.551H700.556H700.561H700.565H700.57H700.575H700.58H700.584H700.589H700.594H700.599H700.603H700.608H700.613H700.618H700.622H700.627H700.632H700.636H700.641H700.646H700.651H700.655H700.66H700.665H700.67H700.674H700.679H700.684H700.688H700.693H700.698H700.703H700.707H700.712H700.717H700.721H700.726H700.731H700.736H700.74H700.745H700.75H700.755H700.759H700.764H700.769H700.773H700.778H700.783H700.788H700.792H700.797H700.802H700.806H700.811H700.816H700.82H700.825H700.83H700.835H700.839H700.844H700.849H700.853H700.858H700.863H700.868H700.872H700.877H700.882H700.886H700.891H700.896H700.9H700.905H700.91H700.914H700.919H700.924H700.929H700.933H700.938H700.943H700.947H700.952H700.957H700.961H700.966H700.971H700.975H700.98H700.985H700.989H700.994H700.999H701.003H701.008H701.013H701.018H701.022H701.027H701.032H701.036H701.041H701.046H701.05H701.055H701.06H701.064H701.069H701.074H701.078H701.083H701.088H701.092H701.097H701.102H701.106H701.111H701.115H701.12H701.125H701.129H701.134H701.139H701.143H701.148H701.153H701.157H701.162H701.167H701.171H701.176H701.181H701.185H701.19H701.195H701.199H701.204H701.208H701.213H701.218H701.222H701.227H701.232H701.236H701.241H701.245H701.25H701.255H701.259H701.264H701.269H701.273H701.278H701.282H701.287H701.292H701.296H701.301H701.306H701.31H701.315H701.319H701.324H701.329H701.333H701.338H701.342H701.347H701.352H701.356H701.361H701.365H701.37H701.375H701.379H701.384H701.388H701.393H701.398H701.402H701.407H701.411H701.413V1220.95C699.16 1220.93 696.926 1221.38 694.857 1222.28C692.683 1223.22 690.745 1224.63 689.182 1226.41L689.181 1226.41C685.735 1230.33 683.152 1234.94 681.601 1239.93C679.765 1245.38 677.714 1252.77 675.448 1262.09L675.448 1262.09L675.447 1262.09C673.007 1272.87 669.886 1283.49 666.102 1293.87C663.037 1301.85 658.057 1308.96 651.599 1314.56L651.597 1314.56C645.106 1320.27 636.282 1323.15 625.068 1323.15C624.555 1323.15 624.044 1323.12 623.518 1323.1L623.512 1323.1C623.153 1323.08 622.788 1323.06 622.418 1323.05V1292.36H622.419H622.423H622.426H622.429H622.433H622.436H622.44H622.443H622.447H622.45H622.454H622.457H622.461H622.464H622.467H622.471H622.474H622.478H622.481H622.485H622.488H622.492H622.495H622.499H622.502H622.505H622.509H622.512H622.516H622.519H622.523H622.526H622.53H622.533H622.536H622.54H622.543H622.547H622.55H622.554H622.557H622.561H622.564H622.567H622.571H622.574H622.578H622.581H622.585H622.588H622.592H622.595H622.598H622.602H622.605H622.609H622.612H622.616H622.619H622.623H622.626H622.629H622.633H622.636H622.64H622.643H622.647H622.65H622.654H622.657H622.66H622.664H622.667H622.671H622.674H622.678H622.681H622.684H622.688H622.691H622.695H622.698H622.702H622.705H622.709H622.712H622.715H622.719H622.722H622.726H622.729H622.733H622.736H622.739H622.743H622.746H622.75H622.753H622.757H622.76H622.763H622.767H622.77H622.774H622.777H622.781H622.784H622.787H622.791H622.794H622.798H622.801H622.805H622.808H622.811H622.815H622.818H622.822H622.825H622.829H622.832H622.835H622.839H622.842H622.846H622.849H622.853H622.856H622.859H622.863H622.866H622.87H622.873H622.877H622.88H622.883H622.887H622.89H622.894H622.897H622.901H622.904H622.907H622.911H622.914H622.918H622.921H622.924H622.928H622.931H622.935H622.938H622.942H622.945H622.948H622.952H622.955H622.959H622.962H622.966H622.969H622.972H622.976H622.979H622.983H622.986H622.989H622.993H622.996H623H623.003H623.007H623.01H623.013H623.017H623.02H623.024H623.027H623.031H623.034H623.037H623.041H623.044H623.048H623.051H623.054H623.058H623.061H623.065H623.068H623.072H623.075H623.078H623.082H623.085H623.089H623.092H623.095H623.099H623.102H623.106H623.109H623.112H623.116H623.119H623.123H623.126H623.13H623.133H623.136H623.14H623.143H623.147H623.15H623.153H623.157H623.16H623.164H623.167H623.171H623.174H623.177H623.181H623.184H623.188H623.191H623.194H623.198H623.201H623.205H623.208H623.211H623.215H623.218H623.222H623.225H623.229H623.232H623.235H623.239H623.242H623.246H623.249H623.252H623.256H623.259H623.263H623.266H623.269H623.273H623.276H623.28H623.283H623.286H623.29H623.293H623.297H623.3H623.303H623.307H623.31H623.314H623.317H623.321H623.324H623.327H623.331H623.334H623.338H623.341H623.344H623.348H623.351H623.355H623.358H623.361H623.365H623.368H623.372H623.375H623.378H623.382H623.385H623.389H623.392H623.395H623.399H623.402H623.406H623.409H623.413H623.416H623.419H623.423H623.426H623.43H623.433H623.436H623.44H623.443H623.447H623.45H623.453H623.457H623.46H623.464H623.467H623.47H623.474H623.477H623.481H623.484H623.487H623.491H623.494H623.498H623.501H623.504H623.508H623.511H623.515H623.518H623.521H623.525H623.528H623.532H623.535H623.538H623.542H623.545H623.549H623.552H623.556H623.559H623.562H623.566H623.569H623.573H623.576H623.579H623.583H623.586H623.59H623.593H623.596H623.6H623.603H623.607H623.61H623.613H623.617H623.62H623.624H623.627H623.63H623.634H623.637H623.641H623.644H623.647H623.651H623.654H623.658H623.661H623.664H623.668H623.671C626.01 1292.43 628.334 1291.98 630.476 1291.03C632.621 1290.09 634.528 1288.68 636.06 1286.91L636.064 1286.9C639.429 1282.92 641.967 1278.3 643.532 1273.33C645.345 1267.96 647.396 1260.57 649.685 1251.18L649.685 1251.18L649.687 1251.17C652.021 1240.51 655.102 1230.03 658.907 1219.81C661.967 1211.8 666.921 1204.66 673.343 1198.99Z" stroke="url(#paint29_linear)"/>
<defs>
<linearGradient id="paint0_linear" x1="938.941" y1="0" x2="938.941" y2="180.16" gradientUnits="userSpaceOnUse">
<stop stop-color="#7BABE9"/>
<stop offset="1" stop-color="#7BABE9" stop-opacity="0"/>
</linearGradient>
<linearGradient id="paint1_linear" x1="356.414" y1="584.534" x2="356.414" y2="764.729" gradientUnits="userSpaceOnUse">
<stop stop-color="#7BABE9"/>
<stop offset="1" stop-color="#7BABE9" stop-opacity="0"/>
</linearGradient>
<linearGradient id="paint2_linear" x1="356.379" y1="1.60168" x2="356.379" y2="178.681" gradientUnits="userSpaceOnUse">
<stop stop-color="#7BABE9"/>
<stop offset="1" stop-color="#7BABE9" stop-opacity="0"/>
</linearGradient>
<linearGradient id="paint3_linear" x1="21.6676" y1="0.158203" x2="21.6676" y2="178.646" gradientUnits="userSpaceOnUse">
<stop stop-color="#7BABE9"/>
<stop offset="1" stop-color="#7BABE9" stop-opacity="0"/>
</linearGradient>
<linearGradient id="paint4_linear" x1="5.10547" y1="89.3935" x2="124.438" y2="89.3935" gradientUnits="userSpaceOnUse">
<stop stop-color="#7BABE9"/>
<stop offset="1" stop-color="#7BABE9" stop-opacity="0"/>
</linearGradient>
<linearGradient id="paint5_linear" x1="1031.82" y1="333.62" x2="853.332" y2="333.62" gradientUnits="userSpaceOnUse">
<stop stop-color="#364B66" stop-opacity="0"/>
<stop offset="1" stop-color="#7BABE9"/>
</linearGradient>
<linearGradient id="paint6_linear" x1="942.585" y1="317.057" x2="942.585" y2="436.39" gradientUnits="userSpaceOnUse">
<stop stop-color="#364B66" stop-opacity="0"/>
<stop offset="1" stop-color="#7BABE9"/>
</linearGradient>
<linearGradient id="paint7_linear" x1="21.6676" y1="585.379" x2="21.6676" y2="763.867" gradientUnits="userSpaceOnUse">
<stop stop-color="#7BABE9"/>
<stop offset="1" stop-color="#7BABE9" stop-opacity="0"/>
</linearGradient>
<linearGradient id="paint8_linear" x1="5.10547" y1="674.614" x2="124.438" y2="674.614" gradientUnits="userSpaceOnUse">
<stop stop-color="#7BABE9"/>
<stop offset="1" stop-color="#7BABE9" stop-opacity="0"/>
</linearGradient>
<linearGradient id="paint9_linear" x1="693.078" y1="178.646" x2="693.078" y2="0.158401" gradientUnits="userSpaceOnUse">
<stop stop-color="#7BABE9"/>
<stop offset="1" stop-color="#7BABE9" stop-opacity="0"/>
</linearGradient>
<linearGradient id="paint10_linear" x1="709.641" y1="89.3936" x2="590.308" y2="89.3936" gradientUnits="userSpaceOnUse">
<stop stop-color="#7BABE9"/>
<stop offset="1" stop-color="#7BABE9" stop-opacity="0"/>
</linearGradient>
<linearGradient id="paint11_linear" x1="268.112" y1="419.81" x2="446.6" y2="419.81" gradientUnits="userSpaceOnUse">
<stop stop-color="#7BABE9"/>
<stop offset="1" stop-color="#7BABE9" stop-opacity="0"/>
</linearGradient>
<linearGradient id="paint12_linear" x1="357.364" y1="436.39" x2="357.364" y2="317.057" gradientUnits="userSpaceOnUse">
<stop stop-color="#7BABE9"/>
<stop offset="1" stop-color="#7BABE9" stop-opacity="0"/>
</linearGradient>
<linearGradient id="paint13_linear" x1="756.229" y1="631.51" x2="577.741" y2="631.51" gradientUnits="userSpaceOnUse">
<stop stop-color="#7BABE9"/>
<stop offset="1" stop-color="#7BABE9" stop-opacity="0"/>
</linearGradient>
<linearGradient id="paint14_linear" x1="666.977" y1="614.948" x2="666.977" y2="734.28" gradientUnits="userSpaceOnUse">
<stop stop-color="#7BABE9"/>
<stop offset="1" stop-color="#7BABE9" stop-opacity="0"/>
</linearGradient>
<linearGradient id="paint15_linear" x1="71.782" y1="320.155" x2="71.782" y2="400.15" gradientUnits="userSpaceOnUse">
<stop stop-color="#7BABE9"/>
<stop offset="1" stop-color="#7BABE9" stop-opacity="0"/>
</linearGradient>
<linearGradient id="paint16_linear" x1="666.915" y1="306.954" x2="666.915" y2="440.649" gradientUnits="userSpaceOnUse">
<stop stop-color="#7BABE9"/>
<stop offset="1" stop-color="#7BABE9" stop-opacity="0"/>
</linearGradient>
<linearGradient id="paint17_linear" x1="939.082" y1="634.696" x2="939.082" y2="714.691" gradientUnits="userSpaceOnUse">
<stop stop-color="#7BABE9"/>
<stop offset="1" stop-color="#7BABE9" stop-opacity="0"/>
</linearGradient>
<linearGradient id="paint18_linear" x1="933.941" y1="883" x2="933.941" y2="1063.16" gradientUnits="userSpaceOnUse">
<stop stop-color="#7BABE9"/>
<stop offset="1" stop-color="#7BABE9" stop-opacity="0"/>
</linearGradient>
<linearGradient id="paint19_linear" x1="351.379" y1="884.602" x2="351.379" y2="1061.68" gradientUnits="userSpaceOnUse">
<stop stop-color="#7BABE9"/>
<stop offset="1" stop-color="#7BABE9" stop-opacity="0"/>
</linearGradient>
<linearGradient id="paint20_linear" x1="16.6676" y1="883.158" x2="16.6676" y2="1061.65" gradientUnits="userSpaceOnUse">
<stop stop-color="#7BABE9"/>
<stop offset="1" stop-color="#7BABE9" stop-opacity="0"/>
</linearGradient>
<linearGradient id="paint21_linear" x1="0.105469" y1="972.393" x2="119.438" y2="972.393" gradientUnits="userSpaceOnUse">
<stop stop-color="#7BABE9"/>
<stop offset="1" stop-color="#7BABE9" stop-opacity="0"/>
</linearGradient>
<linearGradient id="paint22_linear" x1="1026.82" y1="1216.62" x2="848.332" y2="1216.62" gradientUnits="userSpaceOnUse">
<stop stop-color="#364B66" stop-opacity="0"/>
<stop offset="1" stop-color="#7BABE9"/>
</linearGradient>
<linearGradient id="paint23_linear" x1="937.585" y1="1200.06" x2="937.585" y2="1319.39" gradientUnits="userSpaceOnUse">
<stop stop-color="#364B66" stop-opacity="0"/>
<stop offset="1" stop-color="#7BABE9"/>
</linearGradient>
<linearGradient id="paint24_linear" x1="688.078" y1="1061.65" x2="688.078" y2="883.158" gradientUnits="userSpaceOnUse">
<stop stop-color="#7BABE9"/>
<stop offset="1" stop-color="#7BABE9" stop-opacity="0"/>
</linearGradient>
<linearGradient id="paint25_linear" x1="704.641" y1="972.393" x2="585.308" y2="972.393" gradientUnits="userSpaceOnUse">
<stop stop-color="#7BABE9"/>
<stop offset="1" stop-color="#7BABE9" stop-opacity="0"/>
</linearGradient>
<linearGradient id="paint26_linear" x1="263.112" y1="1302.81" x2="441.6" y2="1302.81" gradientUnits="userSpaceOnUse">
<stop stop-color="#7BABE9"/>
<stop offset="1" stop-color="#7BABE9" stop-opacity="0"/>
</linearGradient>
<linearGradient id="paint27_linear" x1="352.364" y1="1319.39" x2="352.364" y2="1200.06" gradientUnits="userSpaceOnUse">
<stop stop-color="#7BABE9"/>
<stop offset="1" stop-color="#7BABE9" stop-opacity="0"/>
</linearGradient>
<linearGradient id="paint28_linear" x1="66.782" y1="1203.16" x2="66.782" y2="1283.15" gradientUnits="userSpaceOnUse">
<stop stop-color="#7BABE9"/>
<stop offset="1" stop-color="#7BABE9" stop-opacity="0"/>
</linearGradient>
<linearGradient id="paint29_linear" x1="661.915" y1="1189.95" x2="661.915" y2="1323.65" gradientUnits="userSpaceOnUse">
<stop stop-color="#7BABE9"/>
<stop offset="1" stop-color="#7BABE9" stop-opacity="0"/>
</linearGradient>
</defs>
</svg>
