<svg width="691" height="692" viewBox="0 0 691 692" fill="none" xmlns="http://www.w3.org/2000/svg">
<path d="M347.064 584.215L347.064 584.216L287.468 690.729L0.680454 530.218L60.3062 423.654C60.3063 423.654 60.3063 423.654 60.3063 423.654C85.2004 379.215 118.755 350.575 160.966 337.678C203.175 324.782 245.484 330.225 287.925 354.046L287.926 354.046C330.08 377.634 356.721 410.712 367.896 453.287C379.071 495.861 372.145 539.495 347.064 584.215ZM315.437 471.459C306.395 442.841 287.719 420.643 259.444 404.873C230.323 388.561 201.461 383.863 172.882 390.824C144.278 397.791 121.272 416.9 103.854 448.066L72.2237 504.566L71.9794 505.002L72.4158 505.246L271.256 616.526L271.692 616.77L271.936 616.334L303.546 559.854C320.502 529.574 324.485 500.099 315.437 471.459Z" stroke="url(#paint0_linear)"/>
<path d="M519.227 224.214L366.286 413.117L90.2032 189.606L243.154 0.703212L285.127 34.684L171.191 175.415L170.877 175.804L171.265 176.119L243.065 234.259L243.454 234.573L243.769 234.185L355.364 96.3133L397.337 130.294L285.741 268.165L285.427 268.554L285.816 268.869L362.605 330.999L362.994 331.313L363.309 330.925L477.254 190.223L519.227 224.214Z" stroke="url(#paint1_linear)"/>
<path d="M595.784 672.556L595.784 672.556C539.604 695.048 488.465 695.495 442.325 673.962L456.338 617.86C496.569 636.572 537.176 637.728 578.126 621.324C600.176 612.518 615.01 601.433 622.516 588.024C630.003 574.65 631.326 561.795 626.414 549.505L626.414 549.504C621.338 536.839 610.624 529.456 594.415 527.305C578.283 525.163 559.994 525.714 539.552 528.946C519.165 532.171 498.365 534.603 477.151 536.242L477.147 536.242C456.632 537.989 436.019 534.275 417.403 525.478C398.762 516.66 384.995 501.183 376.114 478.994C365.145 451.586 367.043 424.432 381.828 397.491C396.613 370.548 421.65 349.988 456.996 335.834C507.249 315.718 554.085 314.517 597.537 332.184L581.983 387.208C547.094 372.429 510.487 372.718 472.194 388.046L472.194 388.046C455.071 394.905 442.912 404.068 435.785 415.567C428.647 427.082 427.603 439.176 432.655 451.796C435.998 460.153 442.41 465.728 451.828 468.52C461.188 471.295 472.163 472.152 484.74 471.109C497.279 470.101 511.017 468.506 525.952 466.325C540.861 464.147 556.067 462.742 571.57 462.11L571.575 462.11C586.301 461.375 601.065 462.241 615.604 464.693C629.698 467.235 642.936 473.252 654.117 482.201L654.121 482.204C665.953 491.473 675.209 504.419 681.876 521.066C693.645 550.459 692.703 578.853 679.062 606.288C665.431 633.702 637.709 655.807 595.784 672.556Z" stroke="url(#paint2_linear)"/>
<defs>
<linearGradient id="paint0_linear" x1="186.785" y1="330.378" x2="186.785" y2="691.41" gradientUnits="userSpaceOnUse">
<stop stop-color="#7BABE9" stop-opacity="0.65"/>
<stop offset="1" stop-color="#7BABE9" stop-opacity="0"/>
</linearGradient>
<linearGradient id="paint1_linear" x1="304.715" y1="0" x2="304.715" y2="413.82" gradientUnits="userSpaceOnUse">
<stop stop-color="#7BABE9" stop-opacity="0.65"/>
<stop offset="1" stop-color="#7BABE9" stop-opacity="0"/>
</linearGradient>
<linearGradient id="paint2_linear" x1="529.576" y1="319.282" x2="529.576" y2="690.276" gradientUnits="userSpaceOnUse">
<stop stop-color="#7BABE9" stop-opacity="0.65"/>
<stop offset="1" stop-color="#7BABE9" stop-opacity="0"/>
</linearGradient>
</defs>
</svg>
