<svg width="166" height="61" viewBox="0 0 166 61" fill="none" xmlns="http://www.w3.org/2000/svg">
<path d="M61 0.0327148L1.0752 0.0327148V59.9999H61V0.0327148Z" fill="#007AFF"/>
<path d="M31.1241 50.7013L25.9367 59.9791L1 46.0125L6.19001 36.7303C8.35259 32.8671 11.2696 30.3742 14.9412 29.2517C18.6127 28.1291 22.2926 28.6036 25.9809 30.6752C29.6443 32.7266 31.9621 35.6052 32.9341 39.3111C33.9062 43.017 33.3029 46.8138 31.1241 50.7013ZM27.276 48.5456C28.741 45.9275 29.0835 43.3828 28.3033 40.9116C27.5231 38.4404 25.9118 36.5233 23.4695 35.1602C20.9533 33.7496 18.4624 33.3448 15.997 33.9457C13.5316 34.5466 11.5462 36.1948 10.0407 38.8904L7.29875 43.7917L24.5358 53.4452L27.276 48.5456Z" fill="white" stroke="white" stroke-miterlimit="10"/>
<path d="M46.0717 19.444L32.759 35.8986L8.75854 16.4546L22.0721 0L25.778 3.00239L15.8739 15.2444L22.0981 20.288L31.7994 8.2941L35.5053 11.2965L25.804 23.2904L32.4608 28.6802L42.3658 16.4407L46.0717 19.444Z" fill="white"/>
<path d="M52.6634 58.3843C47.7713 60.3442 43.3147 60.3795 39.2935 58.4901L40.5297 53.5376C44.022 55.1771 47.5456 55.2844 51.1004 53.8594C53.0075 53.0972 54.283 52.1406 54.9268 50.9897C55.5706 49.8389 55.6824 48.7374 55.2623 47.6855C54.8294 46.6046 53.9163 45.9716 52.5229 45.7865C51.1296 45.6015 49.5484 45.6489 47.7794 45.9288C46.0109 46.2087 44.2067 46.4198 42.3666 46.5621C40.5805 46.7143 38.786 46.3907 37.1653 45.6243C35.5379 44.854 34.3375 43.5021 33.5643 41.5688C32.6084 39.1785 32.7743 36.8094 34.0619 34.4614C35.3495 32.1134 37.5288 30.3241 40.5999 29.0934C44.9788 27.3393 49.0627 27.2387 52.8515 28.7915L51.4792 33.6494C48.4527 32.3528 45.2761 32.3708 41.9496 33.7032C40.4707 34.296 39.4255 35.086 38.8141 36.0732C38.2027 37.0604 38.1134 38.095 38.5462 39.1771C38.8306 39.8884 39.3753 40.3635 40.1803 40.6024C40.9853 40.8412 41.9311 40.9156 43.0176 40.8253C44.1035 40.738 45.2935 40.5998 46.5874 40.4107C47.8814 40.2216 49.2011 40.0995 50.5465 40.0446C51.8263 39.9807 53.1093 40.056 54.3729 40.2693C55.6019 40.491 56.7561 41.0161 57.7312 41.7969C58.7639 42.6066 59.5704 43.7364 60.1506 45.1862C61.1753 47.7471 61.0935 50.2232 59.9053 52.6146C58.7171 55.006 56.3031 56.9292 52.6634 58.3843Z" fill="white"/>
<path d="M31.1786 35.0744H31.2393C31.2968 35.0744 31.3519 35.0515 31.3926 35.0109C31.4332 34.9702 31.456 34.915 31.456 34.8575C31.456 34.8 31.4332 34.7448 31.3926 34.7041C31.3519 34.6635 31.2968 34.6406 31.2393 34.6406H31.1786C31.1212 34.6406 31.066 34.6635 31.0254 34.7041C30.9847 34.7448 30.9619 34.8 30.9619 34.8575C30.9619 34.915 30.9847 34.9702 31.0254 35.0109C31.066 35.0515 31.1212 35.0744 31.1786 35.0744Z" fill="white"/>
<path d="M32.5753 36.9589C32.8545 36.9589 32.8545 36.5251 32.5753 36.5251C32.2962 36.5251 32.2962 36.9589 32.5753 36.9589Z" fill="white"/>
<path d="M32.6967 38.2953C32.9758 38.2953 32.9758 37.8616 32.6967 37.8616C32.4175 37.8616 32.4175 38.2953 32.6967 38.2953Z" fill="white"/>
<path d="M33.9986 35.6445L34.1209 35.2801C34.1284 35.2526 34.1305 35.2239 34.127 35.1956C34.1235 35.1672 34.1144 35.1399 34.1003 35.1151C34.0862 35.0903 34.0674 35.0685 34.0449 35.0509C34.0224 35.0334 33.9967 35.0205 33.9692 35.0129C33.9417 35.0054 33.913 35.0033 33.8847 35.0068C33.8564 35.0103 33.829 35.0194 33.8042 35.0335C33.7795 35.0476 33.7577 35.0664 33.7402 35.089C33.7227 35.1115 33.7097 35.1372 33.7022 35.1647L33.5808 35.5291C33.5655 35.5845 33.5729 35.6438 33.6012 35.6938C33.6296 35.7438 33.6767 35.7805 33.7321 35.7958C33.7875 35.8111 33.8467 35.8038 33.8967 35.7754C33.9467 35.747 33.9834 35.6999 33.9986 35.6445Z" fill="white"/>
<path d="M33.9111 34.7101C34.1902 34.7101 34.1911 34.2764 33.9111 34.2764C33.6311 34.2764 33.632 34.7101 33.9111 34.7101Z" fill="white"/>
<path d="M31.1241 50.7013L25.9367 59.9791L1 46.0125L6.19001 36.7303C8.35259 32.8671 11.2696 30.3742 14.9412 29.2517C18.6127 28.1291 22.2926 28.6036 25.9809 30.6752C29.6443 32.7266 31.9621 35.6052 32.9341 39.3111C33.9062 43.017 33.3029 46.8138 31.1241 50.7013ZM27.276 48.5456C28.741 45.9275 29.0835 43.3828 28.3033 40.9116C27.5231 38.4404 25.9118 36.5233 23.4695 35.1602C20.9533 33.7496 18.4624 33.3448 15.997 33.9457C13.5316 34.5466 11.5462 36.1948 10.0407 38.8904L7.29875 43.7917L24.5358 53.4452L27.276 48.5456Z" fill="white"/>
<path d="M46.0709 19.444L32.7583 35.8986L8.75781 16.4546L22.0714 0L25.7773 3.00239L15.8732 15.2444L22.0974 20.288L31.7986 8.2941L35.5045 11.2965L25.8033 23.2904L32.4601 28.6802L42.365 16.4407L46.0709 19.444Z" fill="white"/>
<path d="M52.6634 58.3843C47.7713 60.3442 43.3147 60.3795 39.2935 58.4901L40.5297 53.5376C44.022 55.1771 47.5456 55.2844 51.1004 53.8594C53.0075 53.0972 54.283 52.1406 54.9268 50.9897C55.5706 49.8389 55.6824 48.7374 55.2623 47.6855C54.8294 46.6046 53.9163 45.9716 52.5229 45.7865C51.1296 45.6015 49.5484 45.6489 47.7794 45.9288C46.0109 46.2087 44.2067 46.4198 42.3666 46.5621C40.5805 46.7143 38.786 46.3907 37.1653 45.6243C35.5379 44.854 34.3375 43.5021 33.5643 41.5688C32.6084 39.1785 32.7743 36.8094 34.0619 34.4614C35.3495 32.1134 37.5288 30.3241 40.5999 29.0934C44.9788 27.3393 49.0627 27.2387 52.8515 28.7915L51.4792 33.6494C48.4527 32.3528 45.2761 32.3708 41.9496 33.7032C40.4707 34.296 39.4255 35.086 38.8141 36.0732C38.2027 37.0604 38.1134 38.095 38.5462 39.1771C38.8306 39.8884 39.3753 40.3635 40.1803 40.6024C40.9853 40.8412 41.9311 40.9156 43.0176 40.8253C44.1035 40.738 45.2935 40.5998 46.5874 40.4107C47.8814 40.2216 49.2011 40.0995 50.5465 40.0446C51.8263 39.9807 53.1093 40.056 54.3729 40.2693C55.6019 40.491 56.7561 41.0161 57.7312 41.7969C58.7639 42.6066 59.5704 43.7364 60.1506 45.1862C61.1753 47.7471 61.0935 50.2232 59.9053 52.6146C58.7171 55.006 56.3031 56.9292 52.6634 58.3843Z" fill="white"/>
<path d="M29.0679 33.0578L31.5428 36.3092L32.8033 40.1539L33.274 39.9709L34.7009 33.9088L34.4425 33.6043L32.6966 35.6707L29.4476 32.8904L29.0679 33.0578Z" fill="white"/>
<path d="M74.421 40.6021C74.769 41.0196 74.943 41.5416 74.943 42.168C74.943 43.0031 74.6298 43.6643 74.0034 44.1514C73.3771 44.6038 72.4723 44.8474 71.2892 44.8474H66.8003V35.0344H71.0108C72.0896 35.0344 72.9247 35.2432 73.5163 35.6956C74.1078 36.1132 74.421 36.7395 74.421 37.5747C74.421 38.0966 74.2818 38.549 74.0382 38.9318C73.7598 39.3146 73.4119 39.5929 72.9247 39.7669C73.5859 39.9061 74.1078 40.1845 74.421 40.6021ZM68.1922 39.3494H70.9412C71.6372 39.3494 72.1592 39.2102 72.5071 38.9318C72.8551 38.6534 73.0639 38.2706 73.0639 37.7486C73.0639 37.2267 72.8899 36.8091 72.5071 36.5655C72.1592 36.2872 71.6372 36.148 70.9412 36.148H68.1922V39.3494ZM73.5163 42.0288C73.5163 41.472 73.3423 41.0544 72.9595 40.7761C72.5767 40.4977 72.02 40.3933 71.2544 40.3933H68.1922V43.7339H71.2544C72.7855 43.7339 73.5163 43.1771 73.5163 42.0288Z" fill="#364B66"/>
<path d="M85.7304 35.0344V44.8474H84.3385V40.4629H78.7012V44.8474H77.3093V35.0344H78.7012V39.245H84.3385V35.0344H85.7304Z" fill="#364B66"/>
<path d="M95.926 43.6295V44.8474H88.7925V35.0344H95.7172V36.2523H90.1844V39.2798H95.0909V40.4629H90.1844V43.6295H95.926Z" fill="#364B66"/>
<path d="M107.479 43.6295V47.0049H106.191V44.8474H98.1183V47.0049H96.8308V43.6295H97.318C97.9443 43.5947 98.3619 43.1075 98.6055 42.168C98.8491 41.2284 99.0231 39.9061 99.0579 38.201L99.1623 35.0344H106.052V43.6295H107.479ZM99.9278 41.7504C99.7538 42.6551 99.4754 43.2815 99.0927 43.6295H104.626V36.2523H100.311L100.241 38.3054C100.206 39.6973 100.102 40.8457 99.9278 41.7504Z" fill="#364B66"/>
<path d="M116.213 35.9391C116.944 36.5306 117.292 37.4005 117.292 38.4445C117.292 39.5232 116.944 40.3584 116.213 40.9499C115.482 41.5415 114.473 41.8547 113.221 41.8547H110.785V44.8125H109.393V34.9995H113.221C114.508 35.0343 115.482 35.3127 116.213 35.9391ZM115.204 40.08C115.656 39.6972 115.9 39.1404 115.9 38.4445C115.9 37.7485 115.656 37.1918 115.204 36.809C114.752 36.4262 114.056 36.2522 113.186 36.2522H110.785V40.6715H113.186C114.056 40.6367 114.752 40.4628 115.204 40.08Z" fill="#364B66"/>
<path d="M126.409 43.6295V44.8474H119.275V35.0344H126.2V36.2523H120.667V39.2798H125.574V40.4629H120.667V43.6295H126.409Z" fill="#364B66"/>
<path d="M137.057 35.0344V44.8474H135.665V40.4629H130.028V44.8474H128.636V35.0344H130.028V39.245H135.665V35.0344H137.057Z" fill="#364B66"/>
<path d="M140.119 35.0343H141.511V42.5854L147.322 34.9995H148.61V44.8125H147.218V37.2614L141.407 44.8125H140.119V35.0343Z" fill="#364B66"/>
<path d="M158.771 43.6295V44.8474H151.637V35.0344H158.562V36.2523H153.029V39.2798H157.936V40.4629H153.029V43.6295H158.771Z" fill="#364B66"/>
<path d="M68.5054 59.3233C67.7051 58.9057 67.1135 58.2793 66.6612 57.5138C66.2088 56.7482 66 55.8783 66 54.9387C66 53.9992 66.2088 53.1293 66.6612 52.3637C67.1135 51.5981 67.7399 51.0066 68.5402 50.5542C69.3406 50.1367 70.2105 49.8931 71.2197 49.8931C71.9852 49.8931 72.6812 50.0322 73.3075 50.2758C73.9339 50.5194 74.4907 50.9022 74.943 51.4242L74.0383 52.2941C73.3075 51.5286 72.368 51.1458 71.2893 51.1458C70.5585 51.1458 69.8974 51.3198 69.3058 51.633C68.7142 51.9461 68.2619 52.3985 67.9139 52.9901C67.5659 53.5816 67.4267 54.208 67.4267 54.904C67.4267 55.5999 67.6007 56.2611 67.9139 56.8178C68.2271 57.3746 68.7142 57.827 69.3058 58.1749C69.8974 58.4881 70.5585 58.6621 71.2893 58.6621C72.368 58.6621 73.3075 58.2793 74.0383 57.479L74.943 58.3489C74.4907 58.8709 73.9339 59.2537 73.3075 59.4972C72.6812 59.7756 71.9504 59.88 71.1849 59.88C70.1757 59.9844 69.271 59.7756 68.5054 59.3233Z" fill="#364B66"/>
<path d="M83.4684 59.8799L81.3457 56.8525C81.0673 56.8873 80.8933 56.8873 80.7194 56.8873H78.2835V59.8799H76.8916V50.0669H80.7194C82.0069 50.0669 82.9812 50.3801 83.712 50.9716C84.4427 51.5632 84.7907 52.4331 84.7907 53.4771C84.7907 54.2426 84.6167 54.869 84.2339 55.4258C83.8512 55.9477 83.3292 56.3305 82.6332 56.5741L84.9647 59.8799H83.4684ZM82.7028 55.1126C83.1552 54.7298 83.3988 54.173 83.3988 53.4771C83.3988 52.7811 83.1552 52.2243 82.7028 51.8416C82.2505 51.4588 81.5545 51.2848 80.6846 51.2848H78.2835V55.7041H80.6846C81.5545 55.7041 82.2505 55.4953 82.7028 55.1126Z" fill="#364B66"/>
<path d="M96.2044 59.8798V52.7114L92.655 58.6618H91.9939L88.4445 52.7462V59.8449H87.0874V50.032H88.2357L92.3419 56.9219L96.3784 50.032H97.5267V59.8449H96.2044V59.8798Z" fill="#364B66"/>
<path d="M99.8235 55.4255H103.582V56.5739H99.8235V55.4255Z" fill="#364B66"/>
<path d="M107.722 59.323C106.922 58.9054 106.296 58.2791 105.878 57.5135C105.426 56.748 105.217 55.878 105.217 54.9385C105.217 53.999 105.426 53.129 105.878 52.3635C106.331 51.5979 106.957 51.0064 107.757 50.554C108.558 50.1364 109.428 49.8928 110.437 49.8928C111.202 49.8928 111.898 50.032 112.525 50.2756C113.151 50.5192 113.708 50.902 114.16 51.4239L113.255 52.2939C112.525 51.5283 111.585 51.1455 110.506 51.1455C109.776 51.1455 109.114 51.3195 108.523 51.6327C107.931 51.9459 107.479 52.3983 107.131 52.9898C106.783 53.5814 106.644 54.2078 106.644 54.9037C106.644 55.5997 106.818 56.2608 107.131 56.8176C107.444 57.3744 107.931 57.8267 108.523 58.1747C109.114 58.4879 109.776 58.6619 110.506 58.6619C111.585 58.6619 112.525 58.2791 113.255 57.4787L114.16 58.3487C113.708 58.8706 113.151 59.2534 112.525 59.497C111.898 59.7754 111.167 59.8798 110.402 59.8798C109.393 59.9842 108.523 59.7754 107.722 59.323Z" fill="#364B66"/>
<path d="M116.074 50.0669H117.466V57.6528L123.277 50.0669H124.565V59.8799H123.173V52.3288L117.361 59.8799H116.074V50.0669Z" fill="#364B66"/>
<path d="M129.332 59.323C128.532 58.9054 127.905 58.2791 127.488 57.5135C127.035 56.748 126.826 55.878 126.826 54.9385C126.826 53.999 127.035 53.129 127.488 52.3635C127.94 51.5979 128.566 51.0064 129.367 50.554C130.167 50.1364 131.037 49.8928 132.046 49.8928C132.812 49.8928 133.508 50.032 134.134 50.2756C134.76 50.5192 135.317 50.902 135.769 51.4239L134.865 52.2939C134.134 51.5283 133.194 51.1455 132.116 51.1455C131.385 51.1455 130.724 51.3195 130.132 51.6327C129.541 51.9459 129.088 52.3983 128.74 52.9898C128.392 53.5814 128.253 54.2078 128.253 54.9037C128.253 55.5997 128.427 56.2608 128.74 56.8176C129.053 57.3744 129.541 57.8267 130.132 58.1747C130.724 58.4879 131.385 58.6619 132.116 58.6619C133.194 58.6619 134.134 58.2791 134.865 57.4787L135.769 58.3487C135.317 58.8706 134.76 59.2534 134.134 59.497C133.508 59.7754 132.777 59.8798 132.011 59.8798C131.002 59.9842 130.132 59.7754 129.332 59.323Z" fill="#364B66"/>
<path d="M144.33 51.2848H140.954V59.8799H139.563V51.2848H136.222V50.0669H144.33V51.2848Z" fill="#364B66"/>
<path d="M153.168 58.662V59.8799H146.035V50.0669H152.96V51.2848H147.427V54.3122H152.333V55.4953H147.427V58.662H153.168Z" fill="#364B66"/>
<path d="M164.478 59.8798V52.7114L160.928 58.6618H160.267L156.718 52.7462V59.8449H155.361V50.032H156.509L160.615 56.9219L164.652 50.032H165.8V59.8449H164.478V59.8798Z" fill="#364B66"/>
</svg>
