<svg width="62" height="52" viewBox="0 0 62 52" fill="none" xmlns="http://www.w3.org/2000/svg">
<path d="M44.6364 50.0909V44.6364C44.6364 41.7431 43.487 38.9683 41.4412 36.9225C39.3953 34.8766 36.6205 33.7273 33.7273 33.7273H11.9091C9.01582 33.7273 6.24105 34.8766 4.1952 36.9225C2.14935 38.9683 1 41.7431 1 44.6364V50.0909" stroke="#007AFF" stroke-width="2" stroke-linecap="round" stroke-linejoin="round"/>
<path d="M22.8183 22.8182C28.8432 22.8182 33.7274 17.934 33.7274 11.9091C33.7274 5.88417 28.8432 1 22.8183 1C16.7933 1 11.9092 5.88417 11.9092 11.9091C11.9092 17.934 16.7933 22.8182 22.8183 22.8182Z" stroke="#007AFF" stroke-width="2" stroke-linecap="round" stroke-linejoin="round"/>
<path d="M60.9999 50.0906V44.6361C60.9981 42.219 60.1936 39.8709 58.7127 37.9606C57.2319 36.0502 55.1585 34.6858 52.8181 34.0815" stroke="#7BABE9" stroke-width="2" stroke-linecap="round" stroke-linejoin="round"/>
<path d="M41.9092 1.35425C44.2558 1.95507 46.3356 3.3198 47.8209 5.23328C49.3062 7.14676 50.1124 9.50015 50.1124 11.9224C50.1124 14.3447 49.3062 16.6981 47.8209 18.6116C46.3356 20.5251 44.2558 21.8898 41.9092 22.4906" stroke="#7BABE9" stroke-width="2" stroke-linecap="round" stroke-linejoin="round"/>
</svg>
