<svg width="21" height="20" viewBox="0 0 21 20" fill="none" xmlns="http://www.w3.org/2000/svg">
<path d="M19.9994 14.4765V17.1862C20.0005 17.4377 19.946 17.6867 19.8394 17.9172C19.7328 18.1477 19.5765 18.3546 19.3804 18.5247C19.1844 18.6947 18.9529 18.8242 18.7009 18.9048C18.4489 18.9854 18.1818 19.0153 17.9168 18.9927C14.9772 18.6907 12.1534 17.7409 9.67246 16.2197C7.36425 14.8329 5.4073 12.9826 3.94057 10.8003C2.32607 8.44389 1.32133 5.76107 1.00775 2.96915C0.983881 2.71938 1.01528 2.46764 1.09994 2.22996C1.18461 1.99229 1.32069 1.77389 1.49952 1.58866C1.67835 1.40343 1.89601 1.25544 2.13865 1.15411C2.38128 1.05278 2.64358 1.00032 2.90883 1.00009H5.77477C6.23839 0.995773 6.68786 1.151 7.03938 1.43683C7.39091 1.72267 7.62052 2.11961 7.6854 2.55366C7.80637 3.42084 8.0307 4.27229 8.35412 5.09177C8.48266 5.41507 8.51047 5.76642 8.43428 6.1042C8.35809 6.44198 8.18108 6.75203 7.92423 6.99761L6.71098 8.14473C8.07093 10.406 10.0512 12.2784 12.4429 13.5642L13.6561 12.4171C13.9159 12.1742 14.2438 12.0069 14.601 11.9348C14.9583 11.8628 15.3299 11.8891 15.6718 12.0106C16.5386 12.3164 17.4391 12.5285 18.3563 12.6429C18.8203 12.7048 19.2441 12.9258 19.5471 13.2638C19.8501 13.6019 20.011 14.0335 19.9994 14.4765Z" stroke="#364B66" stroke-width="2" stroke-linecap="round" stroke-linejoin="round"/>
</svg>
