<svg width="88" height="74" viewBox="0 0 88 74" fill="none" xmlns="http://www.w3.org/2000/svg">
<path d="M27.0588 36.5226C30.5098 37.9548 33.1765 40.2624 35.0588 43.4452C37.098 46.4688 38.1176 50.129 38.1176 54.4258C38.1176 60.1548 36.3137 64.8495 32.7059 68.5097C29.098 72.1699 24.6274 74 19.2941 74C13.6471 74 9.01961 72.1699 5.41176 68.5097C1.80392 64.8495 0 60.1548 0 54.4258C0 51.5613 0.313726 48.7764 0.941177 46.071C1.72549 43.3656 3.13725 39.3075 5.17647 33.8968L17.6471 0H36.4706L27.0588 36.5226ZM76.9412 36.5226C80.3922 37.9548 83.0588 40.2624 84.9412 43.4452C86.9804 46.4688 88 50.129 88 54.4258C88 60.1548 86.1961 64.8495 82.5882 68.5097C78.9804 72.1699 74.5098 74 69.1765 74C63.5294 74 58.902 72.1699 55.2941 68.5097C51.6863 64.8495 49.8823 60.1548 49.8823 54.4258C49.8823 51.5613 50.1961 48.7764 50.8235 46.071C51.6078 43.3656 53.0196 39.3075 55.0588 33.8968L67.5294 0H86.3529L76.9412 36.5226Z" fill="#F3F6FA"/>
</svg>
